<svg width="7" height="17" viewBox="0 0 7 17" fill="none" xmlns="http://www.w3.org/2000/svg">
<path d="M5.34347 14.3927H4.27477V6.91182C4.27477 6.32104 3.7962 5.84313 3.20608 5.84313H1.06869C0.478574 5.84313 0 6.32104 0 6.91182C0 7.50261 0.478574 7.95046 1.06869 7.95046H2.13739V14.3626H1.06869C0.478574 14.3626 0 14.8405 0 15.4313C0 16.0221 0.478574 16.5 1.06869 16.5H5.34347C5.93358 16.5 6.41216 16.0221 6.41216 15.4313C6.41216 14.8405 5.93459 14.3927 5.34347 14.3927ZM3.20608 3.70574C4.09142 3.70574 4.80912 2.98805 4.80912 2.10271C4.80912 1.21736 4.09109 0.5 3.20608 0.5C2.32107 0.5 1.60304 1.21769 1.60304 2.10304C1.60304 2.98838 2.32073 3.70574 3.20608 3.70574Z" fill="#B9C5CB"/>
</svg>
