<svg width="22" height="23" viewBox="0 0 22 23" fill="none" xmlns="http://www.w3.org/2000/svg">
<path d="M17.0053 9.97134H16.1568V7.42592C16.1568 4.46333 13.7457 2.05225 10.7831 2.05225C7.82052 2.05225 5.40944 4.46333 5.40944 7.42592V9.97134H4.56096C3.62411 9.97134 2.86401 10.7314 2.86401 11.6683V18.4561C2.86401 19.393 3.62411 20.153 4.56096 20.153H17.0053C17.9421 20.153 18.7022 19.393 18.7022 18.4561V11.6683C18.7022 10.7314 17.9421 9.97134 17.0053 9.97134ZM13.3285 9.97134H8.23769V7.42592C8.23769 6.0224 9.3796 4.8805 10.7831 4.8805C12.1866 4.8805 13.3285 6.0224 13.3285 7.42592V9.97134Z" fill="#2A1D46"/>
</svg>
