<svg width="319" height="163" viewBox="0 0 319 163" fill="none" xmlns="http://www.w3.org/2000/svg">
<path opacity="0.05" d="M0.943359 16.4897C18.2229 13.3837 26.8627 11.8308 35.474 10.4759C117.204 -2.38296 200.434 -2.48581 282.196 10.171C290.81 11.5046 299.454 13.0362 316.741 16.0994L318.943 16.4897V129.114C318.943 139.365 318.943 144.49 317.269 148.533C315.036 153.924 310.753 158.207 305.362 160.44C301.319 162.114 296.194 162.114 285.943 162.114H33.9434C23.6926 162.114 18.5673 162.114 14.5243 160.44C9.13371 158.207 4.85088 153.924 2.61801 148.533C0.943359 144.49 0.943359 139.365 0.943359 129.114L0.943359 16.4897Z" fill="#2A1D46"/>
</svg>
