<svg width="318" height="90" viewBox="0 0 318 90" fill="none" xmlns="http://www.w3.org/2000/svg">
<g clip-path="url(#clip0)">
<g filter="url(#filter0_d)">
<rect x="-0.0574951" y="-0.5" width="318" height="90" rx="12" fill="#FBD061"/>
</g>
<path d="M305.942 -0.500239C312.57 -0.500239 317.942 4.87234 317.942 11.4998L317.942 38.5001L317.942 77.5C317.942 84.1275 312.57 89.5 305.942 89.5L283.943 89.5L260.443 89.5L283.943 18.0005L222.979 -0.49983L283.943 -0.500238L305.942 -0.500239Z" fill="#FCCA48"/>
<path d="M11.6572 89.5266C5.02975 89.5266 -0.342838 84.154 -0.34284 77.5266L-0.342851 50.5263L-0.342866 11.5264C-0.342869 4.89902 5.02972 -0.473571 11.6571 -0.473567L33.6567 -0.473555L58.4428 -0.473554L39.9426 71.0002L127.443 89.5L33.6567 89.5266L11.6572 89.5266Z" fill="#FCCA48"/>
<path d="M33.9423 -0.499494L58.4428 -0.499394L47.4427 42.0009L33.9423 -0.499494Z" fill="#FFC227"/>
<path d="M60.9424 75.5L127.442 89.5L66.9425 89.5L60.9424 75.5Z" fill="#FFC227"/>
<path d="M285.942 73L274.442 47L260.442 89.5L285.942 73Z" fill="#FFC227"/>
</g>
<defs>
<filter id="filter0_d" x="-20.0575" y="-20.5" width="362" height="134" filterUnits="userSpaceOnUse" color-interpolation-filters="sRGB">
<feFlood flood-opacity="0" result="BackgroundImageFix"/>
<feColorMatrix in="SourceAlpha" type="matrix" values="0 0 0 0 0 0 0 0 0 0 0 0 0 0 0 0 0 0 127 0" result="hardAlpha"/>
<feMorphology radius="2" operator="dilate" in="SourceAlpha" result="effect1_dropShadow"/>
<feOffset dx="2" dy="2"/>
<feGaussianBlur stdDeviation="10"/>
<feColorMatrix type="matrix" values="0 0 0 0 0.662745 0 0 0 0 0.686275 0 0 0 0 0.733333 0 0 0 0.15 0"/>
<feBlend mode="normal" in2="BackgroundImageFix" result="effect1_dropShadow"/>
<feBlend mode="normal" in="SourceGraphic" in2="effect1_dropShadow" result="shape"/>
</filter>
<clipPath id="clip0">
<rect width="318" height="90" fill="white"/>
</clipPath>
</defs>
</svg>
