<svg width="24" height="24" viewBox="0 0 24 24" fill="none" xmlns="http://www.w3.org/2000/svg">
<path d="M0.206015 23.794C0.480654 24.0687 0.925636 24.0687 1.20028 23.794L5.49869 19.4956C6.28103 19.8647 7.23761 19.7458 7.88443 19.0991L8.48199 18.5015C9.26415 18.8707 10.2209 18.7511 10.8672 18.1048L11.3647 17.6073L9.87296 16.1155C9.59832 15.8409 9.59832 15.3959 9.87296 15.1213C10.1476 14.8466 10.5925 14.8466 10.8672 15.1213L12.3589 16.6129L14.3473 14.6243L12.8557 13.1327C12.5811 12.8581 12.5811 12.4131 12.8557 12.1385C13.1304 11.8638 13.5753 11.8638 13.85 12.1385L15.3416 13.63L17.3307 11.6408L15.8392 10.1493C15.5646 9.87464 15.5646 9.42966 15.8392 9.15502C16.1139 8.88038 16.5588 8.88033 16.8335 9.15502L18.325 10.6465L19.3229 9.64838L19.8183 10.1438C20.093 10.4184 20.538 10.4184 20.8126 10.1438C21.0872 9.86916 21.0872 9.42417 20.8126 9.14953L19.3139 7.65084L22.2976 4.67793L22.7998 5.18006C23.0744 5.4547 23.5194 5.4547 23.794 5.18006C24.0687 4.90541 24.0687 4.46043 23.794 4.18579C22.448 2.83977 19.9556 0.347374 19.8143 0.205997C19.5396 -0.0686436 19.0947 -0.0686893 18.82 0.205997C18.5454 0.480639 18.5454 0.925625 18.82 1.20027L19.3204 1.70066L16.3369 4.67385L14.8505 3.18744C14.5759 2.9128 14.131 2.91275 13.8563 3.18744C13.5816 3.46208 13.5816 3.90707 13.8563 4.18171L14.3517 4.67713L5.8945 13.1328C5.24932 13.7796 5.12984 14.7356 5.49865 15.5178L4.90095 16.1155C4.25454 16.762 4.13501 17.7185 4.50443 18.5013L0.206015 22.7998C-0.0686722 23.0744 -0.0686722 23.5194 0.206015 23.794Z" fill="#3E244E"/>
</svg>
