<svg width="51" height="51" viewBox="0 0 51 51" fill="none" xmlns="http://www.w3.org/2000/svg">
<path d="M0.437782 50.5623C1.02139 51.1459 1.96698 51.1459 2.55059 50.5623L11.6847 41.4281C13.3472 42.2125 15.3799 41.9599 16.7544 40.5855L18.0242 39.3157C19.6863 40.1003 21.7194 39.8461 23.0928 38.4727L24.15 37.4155L20.98 34.2455C20.3964 33.6619 20.3964 32.7163 20.98 32.1327C21.5636 31.5491 22.5091 31.549 23.0928 32.1327L26.2626 35.3025L30.488 31.0767L27.3184 27.9071C26.7348 27.3235 26.7348 26.3779 27.3184 25.7943C27.9021 25.2107 28.8475 25.2106 29.4313 25.7943L32.6008 28.9638L36.8277 24.7366L33.6584 21.5672C33.0748 20.9836 33.0748 20.038 33.6584 19.4544C34.242 18.8708 35.1875 18.8707 35.7712 19.4544L38.9405 22.6238L41.0612 20.5028L42.114 21.5556C42.6976 22.1392 43.6432 22.1392 44.2268 21.5556C44.8104 20.972 44.8104 20.0264 44.2268 19.4428L41.0421 16.258L47.3825 9.9406L48.4495 11.0076C49.0331 11.5912 49.9787 11.5912 50.5623 11.0076C51.1459 10.424 51.1459 9.47841 50.5623 8.8948C47.702 6.03451 42.4057 0.738171 42.1053 0.437748C41.5217 -0.145866 40.5762 -0.145966 39.9925 0.437748C39.4089 1.02136 39.4089 1.96695 39.9925 2.55057L41.0558 3.6139L34.716 9.93194L31.5574 6.77332C30.9738 6.1897 30.0283 6.1896 29.4446 6.77332C28.861 7.35693 28.861 8.30252 29.4446 8.88614L30.4974 9.93891L12.5258 27.9072C11.1548 29.2817 10.9009 31.3131 11.6846 32.9754L10.4145 34.2455C9.0409 35.6192 8.7869 37.6519 9.57192 39.3153L0.437782 48.4495C-0.145927 49.0332 -0.145927 49.9787 0.437782 50.5623Z" fill="#8622C3"/>
</svg>
