<svg
  width="375"
  height="426"
  viewBox="0 0 375 426"
  fill="none"
  xmlns="http://www.w3.org/2000/svg"
>
  <path
    opacity="0.25"
    d="M294.423 45.3837C273.67 45.3396 250.48 48.7175 227.39 56.7626C211.218 62.4028 193.287 58.8766 180.456 47.5329C162.164 31.3498 141.941 19.4685 122.723 11.6183C59.2782 -14.2245 -10.5105 9.09667 -23.5812 75.5622L-47.969 199.577L-54.0451 230.474C-68.5802 304.387 -20.433 376.106 53.4793 390.641C53.4793 390.641 72.9727 394.848 96.47 399.74C103.624 401.486 117.884 404.358 134.097 407.479C150.284 410.73 164.537 413.465 171.852 414.564C195.459 418.901 215.087 422.422 215.087 422.422C288.999 436.957 360.719 388.81 375.254 314.897L381.33 284L405.718 159.985C418.723 93.5069 362.929 45.4895 294.423 45.3837Z"
    stroke="white"
    stroke-miterlimit="10"
  />
</svg>