<svg
  width="375"
  height="454"
  viewBox="0 0 375 454"
  fill="none"
  xmlns="http://www.w3.org/2000/svg"
>
  <path
    opacity="0.05"
    d="M330.044 88.3996C309.682 84.3874 286.274 83.268 262.072 86.7488C245.12 89.1921 228.195 82.3018 217.769 68.7135C202.91 49.331 185.332 33.8015 167.971 22.4209C110.639 -15.0785 37.6783 -5.53441 12.1378 57.2047L-35.517 174.266L-47.39 203.431C-75.7921 273.2 -42.2494 352.803 27.5189 381.205C27.5189 381.205 45.848 389.062 67.9761 398.358C74.664 401.44 88.1116 406.986 103.428 413.15C118.695 419.437 132.162 424.847 139.132 427.325C161.473 436.096 180.066 443.306 180.066 443.306C249.834 471.708 329.438 438.165 357.84 368.397L369.713 339.232L417.367 222.17C442.846 159.406 397.265 101.605 330.044 88.3996Z"
    fill="white"
  />
</svg>