<svg width="211" height="184" viewBox="0 0 211 184" fill="none" xmlns="http://www.w3.org/2000/svg">
<path fill-rule="evenodd" clip-rule="evenodd" d="M58.0368 101.153C58.468 103.658 59.5516 105.859 60.4663 108.203C60.8985 109.312 61.5728 110.441 62.2347 111.46C62.6631 112.119 63.2063 113.686 63.9923 112.771C64.1228 113.249 63.9513 113.483 64.1328 113.924C64.3885 114.548 65.7159 115.324 66.293 115.804C66.8491 116.267 67.4609 116.622 68.0597 117.031C68.1781 117.112 68.424 117.046 68.5198 117.14C68.6985 117.315 68.5316 117.558 68.607 117.64C69.5453 118.66 71.1733 119.384 72.3933 120.133C74.1369 121.203 75.872 122.273 77.5713 123.395C78.9143 124.281 80.1954 125.216 81.5274 126.104C82.1656 126.529 82.6483 126.951 83.1227 127.505C83.7113 128.193 83.8002 128.224 83.3908 128.935C82.6585 130.206 81.3383 131.025 80.4564 132.166C79.4515 133.466 78.805 134.92 77.4397 136.005C76.829 134.814 76.0402 136.554 77.054 136.371C76.5829 137.578 75.5303 138.607 74.828 139.742C73.9976 141.085 73.0899 142.305 72.107 143.567C72.0067 143.254 71.9068 142.942 71.8063 142.629C70.8504 142.826 71.6158 143.432 71.6863 143.684C71.746 143.897 71.9536 143.919 71.8055 144.382C71.6943 144.729 71.3083 145.025 71.0635 145.314C70.5128 145.963 70.0002 146.632 69.4804 147.3C68.9685 147.957 68.7899 148.499 68.46 149.141C68.1657 149.715 67.8948 149.606 67.4207 150.028C66.9303 150.464 66.4425 151.224 66.0058 151.726C64.706 153.221 63.5381 154.932 62.6507 156.633C61.8049 158.254 60.2433 159.393 59.5293 161.113C59.1643 161.99 59.0307 162.913 58.7144 163.8C58.4184 164.628 57.9338 165.398 57.7508 166.258C57.5985 166.972 57.6965 167.798 57.6227 168.424C57.5624 168.935 57.3149 169.72 57.3882 170.44C57.5434 171.959 58.2719 173.276 59.1414 174.541C55.1743 175.703 50.6609 176.03 46.4986 175.946C44.3714 175.902 41.9472 175.885 39.8657 176.31C38.662 176.557 37.7375 176.863 36.4732 176.777C35.21 176.691 33.9479 176.589 32.6853 176.495C33.0539 175.853 34.2577 175.044 34.9333 174.551C35.3234 174.267 35.9666 174.199 36.265 173.925C36.607 173.61 36.7113 172.826 36.833 172.447C37.7694 169.542 38.4608 166.611 39.0472 163.64C40.0832 158.39 40.4849 153.044 40.8676 147.761C40.8952 147.381 41.1099 146.922 41.0989 146.561C41.0816 145.978 40.9472 145.65 40.9984 145.095C41.0309 144.744 41.5163 144.274 41.4954 143.964C41.4766 143.69 40.9362 143.898 40.937 143.488C40.9384 142.899 41.9125 142.051 42.1159 141.522C42.1944 141.317 41.9046 141.042 41.876 140.813L41.8745 140.772C41.8871 140.778 42.1014 139.944 42.1102 139.91C42.1812 139.643 42.4595 139.559 42.4455 139.225C42.4334 138.936 41.9441 138.56 42.2085 138.26C42.3891 138.055 43.0465 138.384 43.1949 138.151C43.386 137.851 42.5466 136.827 42.6396 136.363C42.7913 135.608 43.4149 134.842 43.6272 134.066C43.7216 133.72 43.617 133.179 43.9276 132.893C44.4342 132.427 44.875 132.904 45.6059 132.748C44.8604 132.201 44.7158 131.722 44.9361 130.923C45.1082 130.3 45.4512 129.608 46.2397 130.23C46.1222 129.3 46.1263 129.154 46.93 128.449C47.3198 128.107 47.74 127.533 48.2061 127.302C48.3471 127.173 48.4883 127.045 48.6296 126.917C48.8206 127.089 49.0478 127.187 49.311 127.209C51.5648 127.106 52.6906 126.707 54.7607 127.875C55.6338 128.368 56.5041 128.737 57.2546 129.379C58.0916 130.094 58.7667 130.937 59.6634 131.606C60.6659 132.354 61.6551 132.968 62.5494 133.826C63.2886 134.535 63.9998 135.338 64.9904 135.771C65.0661 134.745 64.4174 133.828 63.8503 132.932C63.7823 132.825 63.2886 132.536 63.2994 132.568C63.2393 132.389 63.4668 132.234 63.3963 132.074C64.255 132.745 65.1427 133.742 66.1261 134.245C67.7313 135.065 67.0182 133.464 66.7117 132.641C65.8387 130.294 64.2569 128.045 62.4282 126.15C59.2284 122.836 53.8907 119.137 48.7826 121.222C43.72 123.29 41.0529 126.762 39.6003 131.38C37.9145 136.741 37.1406 141.864 36.9803 147.417C36.8884 150.596 36.5134 153.749 36.1268 156.91C35.7494 159.995 35.5949 163.337 34.8749 166.366C34.4231 165.797 34.1566 165.368 33.9311 164.729C33.8394 164.471 33.9545 164.218 33.7981 163.964C33.726 163.847 33.3604 163.861 33.2921 163.754C32.7313 162.88 31.9433 161.676 31.6856 160.669C31.5496 160.139 31.6737 159.829 31.4111 159.346C31.1644 158.894 31.0402 159.323 30.9463 158.764C30.9331 158.687 31.3467 158.559 31.2192 158.198C30.8973 157.284 30.6702 158.15 30.5157 158.144C30.1972 158.133 30.9166 156.258 30.8599 155.964C30.7946 155.626 30.6121 155.81 30.5232 155.564C30.443 155.341 30.345 155.018 30.2847 154.709C30.1022 153.766 29.6887 153.458 29.6699 152.438C29.6476 151.206 29.1196 150.413 28.8831 149.236C28.8393 149.019 29.1132 148.776 29.0637 148.586C28.961 148.192 28.6303 147.864 28.5017 147.447C28.233 146.575 28.7693 145.823 28.6947 144.983C28.7068 145.12 28.393 144.364 28.3734 144.298C28.2603 143.914 28.3087 143.399 28.2193 142.981C28.135 142.589 27.8555 142.065 28.1058 141.698C28.2768 141.447 28.6614 141.516 28.8853 141.236C28.0629 141.007 28.2355 141.257 27.9384 140.472C27.6548 139.723 27.6273 139.096 28.5667 139.591C28.3294 139.085 27.8875 138.465 27.7911 137.924C27.7033 137.43 27.9136 136.951 27.8533 136.459C27.6923 135.141 27.2223 134.339 28.089 133.06C26.9473 132.555 27.4415 130.797 27.2644 129.841C27.0728 128.803 26.6053 127.811 27.5064 127.129C26.3638 126.419 26.9448 124.118 26.966 123.019C26.9864 121.967 26.8914 120.901 26.9057 119.68C26.9142 118.989 26.6893 118.515 26.4988 117.832C26.2529 116.952 26.5029 116.276 26.4189 115.425C26.352 114.749 26.0566 114.07 26.0167 113.35C25.9756 112.615 26.0464 111.79 25.9266 111.069C25.827 110.471 25.6618 110.043 25.6444 109.398C25.6395 109.207 25.5315 108.863 25.577 108.685C25.5753 108.692 25.8851 108.07 25.8829 108.345C25.8919 107.322 25.3 106.324 25.6103 105.078C25.8655 104.055 26.0794 104.223 27.2727 104.286C28.214 104.336 29.1551 104.39 30.0983 104.393C31.3202 104.397 35.2496 103.665 36.134 104.409C36.8663 105.026 36.4407 107.945 36.4905 108.826C36.5712 110.261 34.982 110.7 34.5415 112.165C33.7015 114.959 35.0891 118.647 38.8754 118.886C42.4072 119.109 45.7954 116.598 45.3105 113.512C45.1159 112.274 44.4559 110.926 43.2101 110.201C42.005 109.5 39.445 110.029 38.6058 109.183C38.2143 108.789 38.3696 107.257 38.3242 106.742C38.2581 105.994 37.8616 104.497 38.4321 104.142C39.0761 103.742 41.0653 103.734 41.8004 103.732C42.8423 103.73 43.7905 103.731 44.8243 103.58C47.1123 103.245 49.3933 103.258 51.641 102.82C53.8725 102.385 55.9345 101.93 58.0368 101.153ZM85.3046 101.153C85.7694 101.143 86.768 104.469 87.0312 105.056C87.7506 106.659 88.0454 108.277 88.4458 109.963C88.8567 111.694 89.225 113.454 89.7574 115.16C90.1573 116.441 90.0675 117.683 90.6056 118.973C90.4634 119.772 90.5911 121.152 89.5704 121.496C88.6476 121.806 88.0478 121.048 87.7051 120.391C86.7795 118.616 87.0767 116.247 86.7394 114.339C86.3411 112.086 86.3177 109.867 86.0054 107.611C85.7303 105.623 84.7986 103.112 85.3046 101.153ZM45.0166 55.5748C46.0286 56.5623 47.5148 56.1479 48.8479 56.0384C48.2822 57.1497 47.4705 58.3388 47.4402 59.5831C47.4248 60.2287 47.8265 60.8018 47.8221 61.4176C47.8174 62.0282 47.2444 62.598 46.9726 63.1649C45.7519 65.7086 45.4567 69.1548 45.411 71.8864C45.3168 77.5371 47.2733 83.5559 51.4344 87.9864C52.3126 88.9212 53.2995 89.785 54.4029 90.5227C55.0029 90.9236 57.7665 91.8757 57.8959 92.4389C58.1465 93.529 55.3105 93.4214 54.5362 93.519C52.9079 93.7242 51.2981 94.019 49.6674 94.2087C43.132 94.9685 36.6807 95.5753 30.0922 95.2685C29.3633 95.2345 28.0002 95.5485 27.3112 95.296C26.5016 94.9999 26.7778 94.4101 26.7974 93.7207C26.8478 91.9505 26.5534 90.2096 26.3816 88.4511C26.2425 87.0285 26.6192 87.2183 27.8256 86.4309C29.073 85.6168 30.2926 84.105 30.6999 82.8094C31.8603 83.6184 31.0199 84.0535 31.1851 85.0914C31.3867 86.3575 32.3766 86.15 33.0295 85.3025C34.0423 83.9882 33.9529 81.9107 33.0061 80.5971C32.1583 79.421 29.1331 77.6147 27.4167 78.1527C25.133 78.869 27.6185 81.2718 28.6991 81.7925C28.4325 82.4575 26.9574 83.042 26.3001 83.407C25.3875 83.9138 24.2034 84.2079 23.1485 84.4886C20.3339 85.2372 17.5987 85.346 14.6941 84.9791C11.9029 84.6266 8.7067 83.8409 6.90606 81.863C6.12732 81.0077 5.41136 79.7057 6.15843 78.6346C6.83144 77.6691 8.49522 77.6024 9.31334 76.6671C9.66664 76.2636 9.83654 75.728 10.1612 75.3371C10.6894 74.7017 10.4768 74.8148 11.4698 74.8877C13.0771 75.0055 14.791 75.095 16.3738 74.7604C17.5634 74.5086 18.7219 74.0384 19.8859 73.7384C21.1215 73.4199 22.2929 72.7504 23.2484 72.0289C25.4522 70.3642 27.6097 68.5551 29.6502 66.7408C31.6789 64.9374 32.978 62.6163 34.877 60.7039C37.0293 58.5369 39.0987 55.7669 42.253 54.5739C44.0652 53.8887 44.0322 54.6133 45.0166 55.5748ZM52.6798 62.7785C52.9867 63.056 52.7913 64.6469 53.0842 65.1545C54.2083 67.1047 56.1749 66.6741 58.2093 66.2642C58.3846 67.8271 58.5204 69.5875 59.2499 71.044C59.5759 71.6944 60.0909 72.253 60.3539 72.9327C60.5204 73.3634 60.4533 73.9101 60.6415 74.3105C60.8449 74.7433 61.3605 75.0769 61.6619 75.5035C62.026 76.019 62.217 76.5001 62.6961 76.9511C63.7447 77.9377 65.1686 78.774 65.971 79.9509C66.3002 80.4337 66.3582 80.7917 66.3483 81.3542C66.3449 81.556 66.1807 82.2966 66.2539 82.446C66.5213 82.9936 67.4832 83.135 67.5895 83.8424C67.6496 84.2399 67.3993 84.1923 67.314 84.5236C67.2119 84.9221 67.285 85.1955 67.1164 85.6395C66.8487 86.3441 65.6673 87.67 65.7899 88.2768C64.0519 89.104 60.9954 89.6282 59.0481 89.2506C57.057 88.8644 55.0664 86.9099 53.7816 85.6295C50.7651 82.6238 49.0089 77.8761 48.8441 73.9442C48.7605 71.949 49.068 69.9443 49.1767 67.9523C49.238 66.8301 48.9609 63.6688 50.0608 62.8827C50.3067 62.707 52.4642 62.5835 52.6798 62.7785ZM36.4502 66.5423C33.7673 66.6753 31.4643 70.3069 31.9608 72.4283C32.3687 74.1695 33.0565 72.8231 33.5789 72.0752C34.1955 71.1924 35.3112 70.1245 36.6358 70.3511C38.1079 70.6031 38.4832 72.1533 39.0835 73.1361C40.1781 74.9283 40.519 73.0038 40.7616 71.916C40.5686 69.7887 39.6651 66.3831 36.4502 66.5423Z" fill="#FF5678"/>
<path fill-rule="evenodd" clip-rule="evenodd" d="M198.187 175.062C196.788 175.437 195.477 175.99 194.129 176.484C192.599 177.045 191.531 177.143 189.86 177.141C183.391 177.133 176.989 177.42 170.509 177.533C168.739 177.564 166.942 177.579 165.172 177.551C164.457 177.54 163.756 177.47 163.045 177.419C162.585 177.387 160.581 177.625 160.314 177.486C159.563 177.095 160.009 174.578 159.918 173.771C159.759 172.371 159.349 171.022 158.778 169.706C156.734 164.999 153.298 160.407 148.953 157.047C154.828 154.914 161.237 152.102 167.757 153.367C170.24 153.849 173.531 154.48 174.81 156.557C176.175 158.774 177.37 161.212 178.93 163.335C180.674 165.707 182.525 167.74 185.05 169.52C186.046 170.222 191.065 174.536 190.303 171.206C190.058 170.138 189.155 169.145 188.433 168.273C188.066 167.829 186.088 166.375 186.396 165.861C186.741 165.284 190.309 164.878 191.074 164.695C192.653 164.316 194.224 163.912 195.798 163.515C195.229 164.442 192.134 167.949 194.111 168.846C194.838 169.175 196.717 168.009 197.513 167.804C198.869 167.455 200.109 167.684 201.442 168.03C201.407 168.596 200.122 168.603 199.694 168.99C199.069 169.555 198.63 171.08 199.12 171.758C200.033 173.021 203.567 171.732 205.148 172.211C203.371 173.796 200.584 174.419 198.187 175.062ZM109.918 122.947C109.936 122.98 109.903 123.026 109.69 123.185C109.625 122.984 109.51 122.939 109.368 122.995C109.482 122.887 109.576 122.831 109.69 123.185C109.78 123.118 109.854 123.034 109.918 122.947ZM110.458 122.283C110.416 122.404 110.319 122.461 110.172 122.458C110.18 122.436 110.187 122.417 110.193 122.401C110.291 122.137 110.421 122.182 110.377 121.695C110.436 121.777 110.481 121.859 110.448 121.941C110.541 122.064 110.544 122.178 110.458 122.283ZM94.7344 145.126C94.8837 144.814 94.923 144.452 95.1158 144.166C94.9272 144.456 94.9241 144.815 94.7344 145.126ZM155.511 177.287C153.17 177.206 150.888 177.242 148.547 177.33C143.545 177.519 138.52 177.546 133.528 177.893C131.086 178.063 128.738 178.128 126.289 178.057C124.147 177.994 121.998 178.06 119.863 177.905C117.519 177.735 115.324 177.175 112.958 177.144C110.696 177.115 108.002 176.889 105.808 177.175C105.429 177.224 105.225 177.433 104.778 177.483C104.16 177.552 103.291 177.335 102.659 177.298C101.55 177.233 100.323 177.34 99.2406 177.116C98.8689 177.039 98.6085 176.921 98.248 176.796C97.9225 176.682 97.193 176.595 97.014 176.554C98.0456 176.222 95.7572 175.544 95.5727 175.507C95.5263 175.642 95.6291 175.831 95.7982 176.014C95.2126 175.626 95.8397 175.77 94.8821 175.376C94.4793 175.21 93.7179 175.104 93.2665 175.06C92.832 175.018 92.5975 175.062 92.3998 175.052C92.44 175.014 92.4793 174.963 92.5175 174.895C92.837 174.325 91.8631 173.674 91.316 174.057C91.3792 174.168 91.4818 174.374 91.6058 174.576C91.6003 174.571 91.5956 174.566 91.5901 174.561C91.3872 174.358 91.0056 173.84 90.6256 173.491C91.1073 173.261 90.5181 172.949 90.2959 172.628C90.1439 172.701 89.9753 172.762 89.8882 172.862C90.0146 172.634 90.3283 172.427 90.1444 171.983C90.0919 171.856 89.9528 171.665 89.7782 171.53C89.944 171.642 90.1164 171.767 90.3396 171.74C90.0605 171.375 89.958 171.237 89.8516 170.871C89.7768 170.613 90.1939 170.364 89.7977 170.131C89.8098 169.888 89.977 168.772 89.2758 169.161C89.2758 169.161 89.2758 169.161 89.2756 169.161C89.2758 169.161 89.2758 169.161 89.2761 169.16C89.7248 167.974 90.4881 166.748 91.0553 165.588C92.3767 162.886 93.735 160.164 95.1177 157.486C97.4042 153.055 99.7916 148.636 102.422 144.325C105.03 140.051 107.878 135.917 110.339 131.584C112.714 127.403 115.484 123.403 117.875 119.23C119.001 117.264 120.51 115.638 120.894 113.354C121.019 112.614 121.058 111.072 119.763 111.349C118.921 111.53 117.743 113.352 117.199 113.944C116.713 113.367 113.966 109.971 113.23 111.994C112.598 113.729 116.553 114.484 114.975 116.231C114.819 116.404 114.171 116.579 113.958 116.739C113.543 117.051 113.165 117.601 112.845 117.977C112.115 118.834 111.512 119.745 110.838 120.631C110.711 120.798 110.248 121.175 110.212 121.371C110.193 121.474 110.294 121.581 110.372 121.689C109.824 122.108 109.132 122.479 109.004 123.159C109.041 123.173 109.077 123.175 109.11 123.17C108.6 123.631 107.955 124.748 107.863 124.865C107.176 125.728 106.502 126.632 105.823 127.544C105.456 128.036 104.814 128.616 104.604 129.17C104.531 129.361 104.744 129.704 104.545 129.883C104.022 130.354 103.51 130.254 103.118 131.201C102.965 131.574 102.951 132.096 102.703 132.416C102.306 132.929 101.738 133.171 101.367 133.724C100.663 134.771 99.8194 135.922 99.3759 136.979C99.3742 136.984 99.3739 136.988 99.372 136.992C99.3569 136.909 99.336 136.82 99.3112 136.721C99.0599 137.112 98.8089 137.502 98.5579 137.893C98.9923 137.819 99.2249 137.717 99.3308 137.55C99.3184 137.606 99.2978 137.664 99.2582 137.725C99.036 137.813 98.8023 137.869 98.5579 137.893C98.3893 138.133 98.2318 138.378 98.0847 138.629C98.0126 138.755 97.7704 139.527 97.6684 140.112C97.631 139.885 97.5934 139.681 97.5892 139.654C97.2706 140.185 96.9519 140.715 96.6332 141.245C97.2114 140.861 97.179 140.796 97.7295 140.786C97.0355 140.798 95.9854 141.641 95.8889 142.45C95.8733 142.582 95.9665 142.726 96.049 142.861C96.03 142.859 96.011 142.857 95.989 142.855C95.2623 142.802 95.4749 142.929 95.1994 143.452C95.3047 143.416 95.9164 143.21 96.1463 143.048C96.1713 143.117 96.1754 143.18 96.1367 143.234C95.9566 143.481 94.485 143.322 95.4301 143.871C94.6448 143.415 94.2524 144.913 94.5197 145.427C94.3083 145.691 94.0564 145.934 93.8197 146.179C93.2376 146.779 92.9159 147.234 92.5345 147.965C91.8854 149.209 91.1109 150.444 90.4012 151.664C90.1318 152.128 89.8178 152.524 89.4873 152.954C88.9011 153.719 89.0042 153.528 89.4667 154.361C89.2932 154.312 89.0364 154.43 88.7881 154.602C88.9231 154.403 89.0952 154.257 89.4667 154.361C88.8799 153.304 88.3762 154.592 88.1062 155.197C88.1183 155.197 88.1282 155.195 88.1395 155.194C88.1026 155.241 88.0749 155.283 88.0581 155.316C87.7823 155.807 87.457 156.109 87.6924 156.624C87.76 156.337 88.0289 156.115 88.1431 155.869C87.9822 156.47 87.2242 157.189 86.9954 157.587C86.8054 157.918 86.7785 158.265 86.5448 158.624C86.3253 158.962 86.1277 159.189 85.9591 159.575C85.1442 161.443 84.7474 163.524 84.2333 165.485C83.6253 167.803 83.3751 170.267 83.2451 172.639C83.2071 173.329 83.1862 173.939 83.4736 174.593C83.5154 174.688 83.9627 175.193 83.9512 175.378C83.8893 176.343 81.7925 176.143 80.9861 176.115C79.704 176.07 78.8313 176.25 77.5998 176.404C76.4637 176.546 75.3488 176.468 74.1951 176.709C72.279 177.109 69.4258 177.743 67.5732 176.864C66.6777 176.439 65.5496 175.206 64.8996 174.515C64.0995 173.663 63.8303 172.796 63.6871 171.712C63.4424 169.857 63.4256 167.808 64.1715 166.035C67.6376 157.797 73.5833 150.309 78.7112 142.813C83.5228 135.778 88.917 129.11 93.7386 122.094C96.2873 118.386 99.3539 114.716 102.385 111.289C105.484 107.786 107.695 103.974 109.88 100.008C112.144 101.047 114.541 102.114 117.074 102.583C118.513 102.85 119.943 102.769 121.394 102.855C122.464 102.919 123.359 103.137 124.449 103.161C129.227 103.267 134.748 102.772 139.316 101.551C140.412 101.259 141.392 100.955 142.419 100.533C143.731 99.995 144.085 99.7664 144.159 101.018C144.304 103.441 144.761 105.796 144.976 108.205C145.186 110.553 145.733 112.868 146.217 115.188C146.462 116.362 146.726 117.536 146.927 118.717C147.079 119.613 147.54 120.86 147.357 121.756C147.155 122.744 146.071 123.748 145.451 124.592C144.822 125.448 144.189 126.302 143.561 127.159C142.384 128.766 141.213 130.291 139.822 131.766C137.246 134.5 135.051 137.359 132.608 140.182C130.013 143.18 127.857 146.418 125.31 149.446C123.965 151.046 122.59 152.555 121.708 154.357C120.977 155.851 119.505 157.226 118.605 158.705C117.424 160.647 115.92 162.426 114.747 164.377C113.928 165.74 112.346 167.127 112.179 168.711C111.901 171.369 114.824 168.713 115.501 167.972C116.408 166.978 117.403 165.238 118.766 164.7C119.74 164.315 121.162 164.357 122.219 164.055C123.326 163.74 124.413 163.412 125.532 163.124C127.71 162.561 129.812 161.766 131.93 161.052C134.122 160.312 136.313 159.566 138.464 158.743C139.46 158.363 140.299 158.167 141.363 158.002C141.82 157.93 143.458 157.261 143.819 157.318C144.424 157.413 145.26 158.953 145.719 159.348C146.426 159.959 147.223 160.457 147.884 161.114C149.186 162.407 150.566 163.785 151.696 165.191C154.219 168.33 156.579 171.761 157.477 175.543C157.88 177.24 157.41 177.353 155.511 177.287ZM89.8794 173.182C89.864 173.154 89.8543 173.127 89.848 173.1C89.856 173.127 89.8631 173.152 89.8794 173.182C90.1782 173.029 90.2574 173.11 90.2879 173.236C90.1375 173.152 89.9973 173.122 89.8794 173.182ZM89.1835 171.43C89.1711 171.382 89.1656 171.338 89.1637 171.297C89.1681 171.341 89.1719 171.385 89.1835 171.43C89.3471 171.335 89.4834 171.362 89.6146 171.43C89.4749 171.364 89.3245 171.348 89.1835 171.43ZM89.4837 170.282C89.5755 170.276 89.68 170.233 89.7977 170.131C89.7012 170.215 89.6102 170.303 89.5274 170.395C89.5288 170.384 89.531 170.373 89.5318 170.361C89.5337 170.339 89.5128 170.312 89.4837 170.282ZM59.7286 160.672C59.0484 162.058 58.7652 163.576 58.1872 164.996C57.7454 166.082 57.5689 167.155 57.4531 168.292C57.8562 168.548 57.8471 168.775 57.4259 168.97C57.3959 169.217 57.3858 169.465 57.3954 169.714C57.286 170.437 57.4474 171.067 57.6687 171.76C58.0195 172.859 58.4641 173.649 59.1166 174.6C55.1567 175.761 50.6454 176.088 46.4909 176.004C44.2454 175.958 41.7265 175.954 39.5385 176.433C37.1824 176.949 35.1165 176.733 32.6961 176.553C33.0497 175.937 34.401 174.91 35.0854 174.482C35.4338 174.264 36.0068 174.227 36.271 173.983C36.6479 173.636 36.6922 172.961 36.8385 172.506C37.7722 169.601 38.4632 166.672 39.0496 163.701C40.0829 158.463 40.563 153.102 40.8676 147.825C40.8934 147.378 41.1601 146.877 41.1472 146.455C41.1302 145.899 40.9465 145.717 40.9982 145.159C41.0317 144.795 41.5365 144.301 41.5 143.977C41.4769 143.774 40.9022 143.949 40.9369 143.553C40.9905 142.941 41.9061 142.135 42.1139 141.586C42.2063 141.342 41.8618 141.099 41.8725 140.832C41.8695 140.908 42.0999 140.007 42.1084 139.975C42.178 139.716 42.4585 139.607 42.4433 139.29C42.4293 139.001 41.9435 138.624 42.2066 138.325C42.4728 138.023 43.024 138.48 43.1917 138.216C43.3826 137.916 42.544 136.893 42.6372 136.429C42.8002 135.616 43.4395 134.743 43.6897 133.918C43.7834 133.609 43.6325 133.227 43.9234 132.959C44.4298 132.493 44.8692 132.971 45.5995 132.814C44.875 132.282 44.7155 131.769 44.9305 130.99C45.1049 130.356 45.4411 129.671 46.2324 130.297C46.1282 129.472 46.0166 129.389 46.7015 128.7C47.2926 128.105 48.0589 127.393 48.7666 126.938C49.8244 126.257 51.5128 125.906 52.7674 125.826C54.1367 125.739 55.8199 126.373 56.8562 127.268C58.1166 128.356 59.7468 129.15 61.1768 130.19C62.7038 131.301 64.0148 132.62 65.4819 133.798C65.783 134.039 66.3376 134.715 66.8028 134.599C67.5617 134.409 66.9488 133.43 66.7825 132.994C65.5996 129.896 63.4737 126.774 60.5493 124.66C59.0412 123.569 57.5408 122.19 55.7878 121.396C54.3715 120.754 53.2654 120.855 51.7597 120.809C50.4727 120.77 50.2082 120.705 49.0606 121.173C48.247 121.505 47.4414 121.829 46.6737 122.234C45.4461 122.883 44.1799 123.672 43.2726 124.652C40.8571 127.262 39.9143 130.582 38.9652 133.762C37.9207 137.261 37.2017 140.68 37.0749 144.31C36.9463 148.004 36.7483 151.644 36.3271 155.323C36.1079 157.236 35.8558 159.145 35.5699 161.052C35.3065 162.81 35.2927 164.7 34.883 166.426C34.367 165.776 34.2067 165.274 33.9218 164.573C33.7296 164.102 33.5347 164.118 33.2564 163.77C32.6669 163.034 31.9301 161.639 31.698 160.73C31.5559 160.175 31.6873 159.896 31.4239 159.408C31.3425 159.257 30.9001 159.375 30.8292 159.136C30.7783 158.964 31.0555 158.832 31.0431 158.773C31.0142 158.638 31.4445 158.488 31.0728 158.062C30.5446 157.458 30.8149 158.216 30.5297 158.206C30.2922 158.197 31.0051 156.112 30.9213 155.809C30.8916 155.702 30.4874 155.688 30.455 155.588C30.3568 155.288 30.3791 154.852 30.2834 154.526C30.0494 153.729 29.7022 153.41 29.6851 152.5C29.6626 151.298 29.1473 150.446 28.8993 149.299C28.8515 149.079 29.1322 148.84 29.0797 148.65C28.9733 148.261 28.6408 147.921 28.5185 147.51C28.2829 146.719 28.5974 145.603 28.5331 144.96C28.4764 144.397 28.2939 143.483 28.1737 142.783C27.9782 141.645 28.3296 142.016 28.9015 141.3C28.1085 141.079 28.2094 141.274 27.9559 140.537C27.6637 139.686 27.6906 139.184 28.5834 139.655C28.3461 139.15 27.9056 138.531 27.8088 137.989C27.7189 137.486 27.9317 137.024 27.871 136.524C27.706 135.172 27.218 134.438 28.1063 133.126C26.9645 132.62 27.4619 130.879 27.2829 129.907C27.0901 128.859 26.6219 127.879 27.5245 127.196C26.5963 126.619 26.9639 124.963 26.9678 124.078C26.9694 123.677 27.1267 122.971 27.0868 122.614C27.0591 122.364 26.8619 122.196 26.8047 121.904C26.5938 120.823 27.0596 119.753 26.7794 118.677C26.4635 117.465 26.4267 116.432 26.3183 115.244C26.2136 114.093 26.0076 112.896 25.9191 111.716C25.8537 110.841 25.4586 109.893 25.6406 108.986C25.6549 108.915 25.896 108.269 25.9029 108.415C25.8916 108.182 25.6953 107.893 25.6862 107.754C25.6216 106.704 25.5985 105.848 25.6505 104.782C25.648 104.782 25.6453 104.782 25.6428 104.782C25.7932 104.703 25.8743 104.539 25.8806 104.282C27.0167 104.187 28.2595 104.427 29.4077 104.454C30.645 104.482 31.8784 104.429 33.1143 104.379C33.9094 104.348 35.6229 104.022 36.2284 104.596C36.6669 105.012 36.3911 107.152 36.4203 107.708C36.4549 108.366 36.8399 109.398 36.395 109.973C36.1189 110.331 35.4951 110.473 35.1734 110.865C34.9776 111.103 34.8184 111.503 34.7145 111.762C34.4002 112.543 34.2751 113.385 34.3232 114.209C34.5501 118.067 38.1263 119.839 42.1417 118.284C45.6396 116.93 46.5907 112.834 43.5852 110.539C42.8778 109.998 42.1236 109.861 41.2206 109.728C40.6468 109.643 39.0807 109.695 38.7057 109.341C38.3334 108.99 38.4241 107.894 38.3829 107.437C38.3166 106.706 37.9762 105.618 38.1607 104.911C37.8583 104.323 38.0601 104.074 38.7667 104.164C38.9905 104.125 39.2143 104.086 39.4379 104.047C40.0015 103.959 40.5553 103.853 41.1277 103.819C42.148 103.758 43.1428 103.863 44.1637 103.745C45.1651 103.629 46.1466 103.413 47.1499 103.301C48.2159 103.181 49.2629 103.314 50.3179 103.157C52.5076 102.833 54.8604 102.397 56.909 101.653C57.4578 101.454 58.3877 100.88 58.9964 100.975C59.7256 101.088 59.5307 101.489 59.7407 102.089C60.9054 105.414 63.3255 108.7 65.8869 111.344C68.3049 113.839 71.4923 115.852 74.3752 117.945C76.1231 119.214 77.8013 120.548 79.4241 121.935C80.6017 122.942 81.8654 124.516 83.3864 125.097C83.7331 125.108 85.0699 124.975 85.3144 125.192C85.5965 125.442 85.5791 125.581 85.4667 125.737C85.7898 125.001 84.2525 125.125 83.3864 125.097C83.4846 125.239 84.4571 126.926 84.6976 125.988C84.8373 126.06 84.977 126.132 85.1167 126.204C84.4254 127.524 83.5305 128.847 82.5583 130.029C81.8497 130.89 80.9344 131.513 80.2985 132.406C79.4959 133.533 78.8272 134.702 77.8104 135.706C75.7827 137.708 74.654 140.401 72.8861 142.622C72.0365 143.69 71.593 144.683 70.7087 145.746C70.0172 146.577 68.8971 147.63 68.494 148.587C68.3332 148.969 68.5058 149.301 68.2111 149.655C68.025 149.879 67.4734 150.122 67.2133 150.355C66.1803 151.277 65.3747 152.593 64.5644 153.679C63.7014 154.834 63.1001 156.034 62.369 157.237C61.6192 158.473 60.378 159.348 59.7286 160.672ZM32.8451 165.945C32.3079 165.952 32.1066 165.954 32.0466 165.751C32.0291 165.69 32.0236 165.61 32.026 165.506C32.0236 165.61 32.0291 165.69 32.0466 165.751C32.1066 165.954 32.3079 165.952 32.8451 165.945V165.945ZM32.9122 164.215C32.9677 164.345 32.6331 164.565 31.7437 164.484C32.6246 164.565 32.9617 164.346 32.9122 164.215ZM30.7252 168.558C30.805 168.619 30.8822 168.683 30.9576 168.748C30.8825 168.683 30.805 168.619 30.7252 168.558ZM25.1784 177.639C24.4542 177.42 22.5699 177.033 21.3431 176.576C21.8903 176.708 22.46 176.817 22.6791 176.883C23.5119 177.135 24.345 177.387 25.1784 177.639C26.3585 173.961 30.7893 172.559 34.5806 171.201C32.7541 171.135 32.1016 169.764 30.9977 168.785C32.0994 169.762 32.7623 171.135 34.5806 171.201C30.7899 172.559 26.3585 173.962 25.1784 177.639ZM21.0341 173.936C20.9926 173.996 20.9513 174.058 20.9098 174.125C20.7968 174.308 20.3712 175.125 20.1925 175.661C20.1564 175.11 20.535 174.465 21.0341 173.936ZM25.2053 104.103C25.273 104.08 25.3274 104.076 25.3769 104.08C25.1787 104.088 25.1248 104.291 25.1163 104.573C24.9441 104.415 24.9032 104.208 25.2053 104.103ZM38.9663 112.602C40.2575 113.157 41.5104 113.479 42.7422 114.15C41.2311 115.166 36.4065 116.806 36.5506 113.667C36.5677 113.301 36.8148 112.319 37.2009 112.101C37.7882 111.77 38.4544 112.382 38.9663 112.602ZM24.1856 97.9865C29.8712 99.7021 36.4951 99.2779 42.274 98.4413C48.4826 97.5424 54.6816 97.0132 60.6962 95.3306C60.7022 96.0548 61.0654 96.8131 60.4017 97.41C59.8815 97.8781 58.7536 97.9666 58.0663 98.1636C56.2681 98.6791 54.7237 99.4301 52.8441 99.7382C50.7388 100.083 48.6358 100.076 46.5123 100.28C45.7433 100.355 45.0202 100.473 44.2979 100.594C43.2976 100.607 42.514 100.724 41.5154 100.964C37.9432 100.978 34.3953 101.07 30.838 100.702C29.0313 100.515 27.2444 100.286 25.433 100.126C23.7366 99.9769 24.1154 99.3446 24.1856 97.9865ZM22.0104 84.7916C18.6621 85.5913 15.2087 85.352 11.9143 84.4366C9.53209 83.7748 6.37182 82.8053 5.87086 80.2986C5.54009 78.645 6.68636 78.3453 8.03444 77.6589C8.67947 77.3304 8.99319 77.0823 9.42706 76.526C9.68442 76.1954 9.91592 75.3661 10.2049 75.1401C10.909 74.589 13.1315 75.0727 14.2332 75.0302C15.8752 74.9669 16.9882 74.4896 18.4988 74.0685C21.1669 73.3244 22.8553 72.4222 24.9265 70.72C26.9414 69.0643 29.307 67.38 30.9361 65.4288C32.7604 63.2438 34.5064 61.1176 36.4937 59.0337C37.9663 57.4895 40.638 54.3985 43.2803 54.4127C44.6066 54.4199 44.4103 55.5015 45.4637 56.0509C46.4254 56.5527 47.6836 56.2036 48.7405 56.1167C48.0438 57.4859 47.0773 58.8941 47.4194 60.4435C47.611 61.3113 47.713 61.6108 47.3209 62.432C46.9627 63.1821 46.5753 63.8469 46.3534 64.6501C45.4892 67.7804 45.0804 71.3036 45.4428 74.5045C46.0702 80.0456 48.2662 85.7667 53.0701 89.6784C54.1653 90.5701 55.3698 91.2831 56.711 91.8698C58.0489 92.4551 58.1597 93.0646 56.5023 93.326C53.2742 93.8351 49.997 94.183 46.7458 94.5609C43.4986 94.9383 40.194 95.3327 36.9196 95.3907C35.2999 95.4194 33.6898 95.5938 32.0703 95.4944C31.2639 95.4448 30.4624 95.3202 29.6538 95.3009C28.9477 95.2841 27.8935 95.5891 27.2364 95.3484C26.2078 94.972 26.7192 92.3692 26.6439 91.4654C26.557 90.4282 25.8001 88.4831 26.2496 87.5026C26.5655 86.8143 27.725 86.5257 28.3258 85.99C29.3114 85.1109 30.2438 84.0687 30.6202 82.8701C31.8685 83.7411 30.7945 84.2999 31.1734 85.362C31.5869 86.521 32.3494 86.1566 32.9463 85.3615C33.9427 84.034 33.8759 81.9826 32.9229 80.6592C32.3714 79.8937 31.4753 79.3184 30.5561 78.9092C29.8121 78.5781 28.1657 77.9287 27.342 78.2164C25.1064 78.9975 27.4858 81.3057 28.6221 81.8538C28.3491 82.5357 26.4126 83.5195 25.6744 83.8107C24.5776 84.2434 23.1878 84.5106 22.0104 84.7916ZM52.6948 63.6511C52.7243 64.0225 52.7699 64.3773 52.9118 64.7327C53.201 65.4573 53.7795 66.0851 54.5766 66.4437C56.1229 67.1398 59.259 66.1375 60.6184 65.3163C60.6184 67.8054 61.1344 69.7853 61.9604 72.1467C62.7594 74.4314 64.3948 76.2905 65.786 78.3189C66.5075 79.3708 67.1699 80.4567 68.1886 81.3204C69.224 82.1981 69.3964 82.5347 69.3018 83.829C69.1465 85.9608 67.9722 87.4148 65.7525 88.2975C63.9939 89.1403 60.3627 89.8251 58.4468 89.1209C56.4328 88.3803 54.471 86.4633 53.1667 84.9877C50.2035 81.6356 48.7006 76.5865 48.8807 72.4189C48.9745 70.2481 49.1073 68.0268 49.3476 65.8639C49.5225 64.2881 49.4587 62.0226 52.11 62.7328C52.9665 62.962 52.6258 62.7909 52.6948 63.6511ZM62.868 92.7594C63.1237 92.3092 65.3736 91.8568 65.7654 92.1207C66.3596 92.5213 66.3843 94.8573 66.593 95.5221C66.9241 96.5776 67.3596 97.6205 67.8842 98.6157C68.9854 100.703 70.5652 102.86 72.4396 104.486C74.3821 106.17 76.6141 107.337 78.9726 108.544C79.6465 108.889 80.299 109.305 80.9913 109.618C81.2819 109.75 81.8203 109.811 82.0491 110.009C82.6152 110.498 82.3534 111.503 82.3468 112.14C82.3196 114.692 82.3295 117.161 82.7208 119.679C80.4098 118.132 78.3218 116.17 76.2644 114.367C74.1071 112.476 71.3293 111.228 69.2837 109.225C67.4225 107.404 65.9576 105.281 64.5903 103.174C63.9914 102.251 62.8504 101.074 62.8094 99.9952C62.7649 98.8317 63.3786 97.6001 63.3857 96.3951C63.3904 95.5425 62.4883 93.429 62.868 92.7594ZM90.6181 118.814C90.4776 119.584 90.5898 121.236 89.3498 121.402C88.4961 121.517 87.9709 120.816 87.658 120.23C86.713 118.456 87.0254 116.091 86.6726 114.186C86.2558 111.937 86.2459 109.719 85.9237 107.467C85.6396 105.481 84.6919 102.976 85.2085 101.018C85.6767 101.008 86.9418 104.838 87.2148 105.445C87.7768 106.696 88.4238 107.748 88.9099 109.044C89.5538 110.761 90.1122 112.4 90.4089 114.197C90.6176 115.46 91.4001 117.702 90.6181 118.814ZM97.4776 110.346C96.3203 111.899 95.0707 113.518 93.44 114.813C93.44 114.089 92.8133 111.733 93.2381 111.173C93.7441 110.506 96.6153 110.476 97.4776 110.346ZM52.5887 49.1788C53.5719 48.7928 54.669 48.6713 55.6605 48.2726C56.6085 47.8914 57.3126 47.6614 58.3649 47.5866C62.0217 47.3272 65.7453 48.1366 69.1289 49.0216C70.9911 49.5087 72.4602 50.576 74.0332 51.5007C75.6603 52.457 76.5525 53.2899 77.2611 54.9081C78.7854 58.3893 79.7235 61.6808 80.3298 65.3517C80.9451 69.0761 79.946 72.8407 80.0084 76.573C80.0694 80.255 80.3735 84.0884 81.7265 87.5942C82.7724 90.305 84.6264 94.6684 88.5335 94.9387C92.2425 95.1953 95.3803 91.8891 96.9134 89.4071C100.967 82.8447 102.49 75.3433 102.71 67.9784C103.283 65.5138 103.61 62.8564 104.602 60.4929C105.705 61.9844 106.605 63.5851 107.619 65.1224C108.732 66.8099 108.661 68.1865 108.564 70.1038C108.489 71.5946 107.881 73.0192 107.66 74.5038C107.404 76.2177 106.935 77.8886 106.823 79.6196C106.69 81.6608 106.822 83.7231 106.623 85.7591C106.456 87.4713 106.019 89.1909 105.702 90.8872C105.393 92.5356 105.355 94.1586 105.401 95.8017C105.445 97.3922 106.081 98.9369 107.639 99.788C105.323 102.26 102.435 105.9 98.5538 106.485C97.2527 106.682 96.0374 106.835 94.7198 106.918C93.6486 106.986 92.3968 107.505 91.473 106.928C89.8827 105.934 89.5692 103.719 88.9682 102.27C88.5525 101.268 84.4307 93.0606 82.261 95.3859C81.8745 95.8001 81.9657 97.3205 81.9066 97.9039C81.8214 98.7451 81.8607 99.6005 81.8296 100.445C81.7901 101.519 81.6798 102.608 81.7661 103.683C81.8186 104.33 82.2685 105.03 81.42 105.186C80.6347 105.33 78.979 103.981 78.4073 103.632C77.6405 103.163 76.8137 102.811 76.0367 102.36C74.4395 101.431 73.1726 100.263 72.0359 98.938C70.8919 97.6051 69.8732 96.1093 69.0989 94.5872C68.7057 93.8149 68.3846 93.0236 68.0563 92.2304C68.0635 92.2479 67.5688 91.2477 67.596 91.1777C67.6832 90.9541 68.7291 90.5827 68.9873 90.4066C71.9383 88.3929 72.5292 83.3854 71.7448 80.4565C71.2699 78.6844 69.6994 77.1274 68.5837 75.6186C67.5061 74.1613 66.3662 72.7337 65.472 71.1826C64.4863 69.4739 63.7247 67.6798 62.8405 65.9324C62.4138 65.0891 61.9018 64.6553 62.5392 63.8829C62.9296 63.4094 63.7379 63.2155 64.0858 62.6974C64.436 62.1759 64.4723 61.1698 63.8421 60.7972C63.1528 60.3892 62.1512 60.9591 61.5196 61.1812C60.6769 61.4774 59.835 61.621 58.975 61.8489C57.9986 62.1078 57.1196 62.6803 56.0831 62.6803C56.6404 61.0208 59.0487 61.1781 59.8301 59.6349C60.3637 58.5801 60.2942 56.6175 58.6299 56.4435C57.6849 56.3448 56.9395 56.9681 56.237 57.3863C55.3121 57.9364 54.614 58.0392 53.5307 58.2115C53.1317 58.2751 52.484 58.5984 52.1056 58.4885C51.4917 58.3105 51.8461 58.4204 52.1675 57.9841C52.6454 57.3355 53.7757 56.702 54.4589 56.2285C55.9951 55.164 58.124 54.3966 59.4548 53.1589C60.3343 52.3405 60.7666 49.5889 59.0954 49.1498C58.4251 48.9735 57.3346 49.5483 56.678 49.724C55.5683 50.0209 54.4377 50.2573 53.3429 50.596C51.3979 51.1974 49.5302 51.9118 47.5569 52.4516C48.6811 51.0678 50.8164 49.8747 52.5887 49.1788ZM118.361 48.7731C118.361 49.7239 118.78 51.5316 118.307 52.396C117.88 53.1745 115.287 53.6084 114.371 53.9058C111.405 54.8689 108.464 55.9413 105.433 56.7388C108.557 52.7383 113.2 50.4158 118.361 48.7731ZM117.924 35.8555C117.155 36.8096 115.82 38.1034 114.256 37.6524C112.572 37.1663 111.252 34.936 112.113 33.5207C112.848 32.3116 114.947 31.5531 116.242 32.506C116.525 32.7137 116.71 33.2454 116.98 33.4079C117.154 33.5119 117.429 33.2333 117.641 33.3448C118.268 33.6738 118.509 34.477 119.413 34.4098C119.832 34.3789 121.173 33.4338 121.447 33.1922C122.181 32.5454 121.925 31.8827 122.041 31.0328C122.201 29.862 123.136 29.6823 124.211 29.0782C125.235 28.5029 126.058 27.6449 127.07 27.0907C128.279 26.429 127.586 27.268 128.691 27.3511C128.89 27.366 129.335 26.7938 129.681 26.8033C130.129 26.8156 130.323 27.0736 130.579 27.3549C131.136 27.966 130.726 28.1578 131.696 28.3002C132.396 28.403 132.829 27.9634 133.428 27.972C133.917 27.4928 134.642 26.4921 135.517 26.7876C136.11 26.9877 136.322 28.0607 136.449 28.5088C136.93 30.2075 136.894 32.2039 136.912 33.946C135.786 33.2629 135.64 32.8039 135.288 31.7026C135.06 30.987 134.508 29.9355 133.906 31.0105C133.735 31.3155 133.881 31.7833 133.768 32.1184C133.637 32.5072 133.323 32.6987 133.274 33.1229C133.156 34.1516 134.131 34.5043 134.971 35.0051C134.187 35.7363 131.929 35.1845 132.531 36.7458C133.167 38.3956 135.613 37.482 136.833 37.0681C137.873 40.4762 133.253 42.1184 130.437 43.0504C128.784 43.5975 128.137 43.9025 127.91 45.5713C127.715 47.0016 127.938 48.4662 128.545 49.8023C128.788 50.3377 129.021 51.0697 129.352 51.5653C129.634 51.9852 130.194 52.0144 130.383 52.2486C131.078 53.1126 130.577 54.9874 130.496 56.0244C130.273 58.8597 129.252 61.4418 128.813 64.2088C128.587 65.6239 127.913 66.9488 127.624 68.3475C127.359 69.6308 127.254 70.8422 126.003 71.7598C123.49 73.6038 121.546 70.8807 120.675 69.0908C119.434 66.5412 119.311 63.1906 119.515 60.472C119.738 57.5168 121.301 54.6776 121.384 51.7443C121.472 48.6072 120.925 45.629 120.017 42.5959C119.62 41.2703 119.042 40.0836 118.553 38.8019C118.152 37.754 118.815 36.8077 117.924 35.8555ZM124.457 4.82128C124.458 4.82365 124.458 4.82579 124.458 4.82816C124.442 4.81273 124.426 4.79802 124.409 4.77998C124.427 4.79873 124.443 4.81155 124.457 4.82128ZM124.532 4.52744C124.495 4.30599 124.413 4.02735 124.357 3.90203C124.493 3.97442 124.647 4.03518 124.653 4.11113C124.667 4.32902 124.595 4.43155 124.532 4.52744ZM128.264 5.08687C128.238 5.09969 128.212 5.11369 128.186 5.12603C128.124 5.12603 128.072 5.11464 128.025 5.09684C128.043 5.10016 128.062 5.10277 128.085 5.1042C128.146 5.10799 128.205 5.10016 128.264 5.08687ZM130.214 4.53124C129.865 4.52886 129.497 4.50062 129.089 4.65371C129.153 4.62001 129.218 4.58986 129.284 4.56969C129.467 4.51367 129.853 4.51985 130.214 4.53124ZM110.431 87.4321C110.506 86.013 110.505 85.587 111.795 84.672C112.87 83.9092 113.91 83.1086 114.997 82.3572C117.402 80.6929 119.972 78.9308 122.707 77.6881C124.24 76.9919 128.421 75.589 127.364 78.3372C126.367 80.9307 124.443 83.2344 122.786 85.5386C121.097 87.8874 119.408 90.2381 117.654 92.5505C116.891 93.5564 116.086 94.5431 115.355 95.5668C114.637 96.5745 114.563 97.2541 113.09 96.8368C112.019 96.5335 110.809 96.1639 109.799 95.7695C108.912 95.4229 108.965 95.2112 108.941 94.31C109.49 91.98 110.304 89.8434 110.431 87.4321ZM117.295 59.0361C116.922 60.3344 114.247 60.4889 112.804 60.7407C112.556 60.7839 111.3 61.1354 111.065 61.0148C110.602 60.7768 110.83 60.0887 110.633 59.7555C109.552 57.9317 109.536 60.2634 109.229 60.8124C108.387 62.3167 107.096 59.305 106.623 58.5675C106.259 58 105.869 57.7114 106.246 57.2351C106.56 56.8385 108.306 56.5662 108.842 56.3951C110.797 55.7706 112.747 55.1348 114.697 54.4982C115.537 54.2241 118.122 52.7888 118.093 54.1683C117.815 55.7554 117.741 57.4833 117.295 59.0361ZM115.833 74.5387C115.01 74.7597 112.776 75.6459 111.944 75.2279C111.242 74.8752 111.727 73.6384 111.806 72.9947C111.955 71.7814 111.933 70.4613 111.853 69.2442C111.736 67.4465 111.563 67.3046 113.615 66.8211C114.407 66.634 116.828 65.6218 117.417 66.1926C117.692 66.4591 117.575 67.3067 117.636 67.6297C117.767 68.3287 117.992 69.012 118.288 69.6721C118.798 70.813 119.543 71.8374 120.323 72.8519C118.925 73.5957 117.396 74.1183 115.833 74.5387ZM111.188 61.8273C111.543 61.3858 113.311 61.3229 113.896 61.2161C114.929 61.0272 115.962 60.8404 116.995 60.6517C117.051 61.7397 117.762 64.5812 116.857 65.3661C116.348 65.8078 114.646 65.9215 113.925 66.0749C113.14 66.242 112.353 66.406 111.567 66.57C111.478 65.5214 111.404 64.472 111.274 63.4263C111.227 63.0418 110.899 62.1864 111.188 61.8273ZM111.392 76.1913C111.936 75.6504 113.407 75.6661 114.224 75.5009C115.527 75.2374 116.761 74.8779 117.994 74.4324C118.684 74.1831 120.043 73.3299 120.806 73.5461C121.019 73.6066 121.466 74.3676 121.629 74.5104C121.907 74.7549 122.266 74.9206 122.588 75.1135C123.476 75.6454 124.015 75.8109 125.062 75.991C119.586 77.9325 115.186 81.3866 110.657 84.5733C110.335 84.3402 110.514 82.2572 110.549 81.7792C110.614 80.8923 110.658 79.9941 110.735 79.1041C110.798 78.3728 110.815 76.766 111.392 76.1913ZM128.022 95.08C127.857 95.8879 127.832 96.9975 127.431 97.744C127.064 98.4278 127.108 98.3801 126.132 98.4005C124.897 98.4263 123.482 98.6051 122.287 98.2804C123.354 96.2427 124.242 94.0285 125.702 92.1696C126.16 91.586 127.046 90.0914 128.005 90.1804C128.968 90.2699 128.756 91.1046 128.68 91.7084C128.538 92.8358 128.25 93.9632 128.022 95.08ZM132.829 63.2965C133.571 58.901 133.508 54.6038 133.508 50.1773C134.691 50.3126 135.994 50.2274 137.134 50.5167C136.766 51.5316 135.704 52.447 136.755 53.4107C137.822 54.3895 140.31 54.8186 141.752 55.1789C143.442 55.6012 145.164 56.1172 146.9 56.368C147.68 56.4805 148.53 56.59 149.317 56.4592C150.564 56.2522 150.674 55.9662 151.493 57.0763C151.497 57.0822 151.504 57.0912 151.509 57.0976C151.272 56.9802 150.521 57.0509 150.721 57.0559C150.751 57.1454 150.795 57.2344 150.82 57.3172C150.599 57.1601 150.11 57.0276 150.042 57.0172C149.227 56.8933 148.193 57.2094 147.408 57.3661C145.648 57.7176 143.901 58.1007 142.197 58.6212C140.762 59.0593 139.34 59.5499 137.972 60.1255C136.915 60.5698 134.475 61.3523 134.141 62.4408C133.502 64.5281 139.88 66.114 141.435 66.8206C142.904 67.4878 142.44 68.4773 142.457 69.8029C142.475 71.2426 142.625 72.6689 142.51 74.1055C142.421 75.2187 142.322 75.0461 141.038 75.0262C140.076 75.0112 139.114 74.9778 138.153 75.0271C136.797 75.0969 135.405 75.2593 134.133 75.6855C132.229 76.3231 128.573 79.3583 132.216 80.2832C133.716 80.6642 135.651 80.5248 137.188 80.433C138.522 80.3532 140.611 79.8285 141.898 80.2248C142.569 80.0606 142.811 80.2713 142.624 80.8571C142.655 81.259 142.686 81.6605 142.716 82.0619C142.779 82.8701 142.841 83.678 142.903 84.4862C143.03 86.1398 143.157 87.7936 143.284 89.4472C142.166 88.0775 140.628 85.375 138.246 85.6838C136.202 85.9487 134.993 88.6898 134.334 90.1044C133.799 91.2537 133.453 92.4585 133.092 93.6547C132.744 94.8051 132.617 96.4314 131.981 97.4739C131.355 98.5006 130.485 98.156 129.202 98.2616C127.599 98.3936 128.246 97.6179 128.5 96.4402C128.888 94.6461 130.262 91.5508 128.938 89.8787C127.247 87.7442 124.858 91.6992 124.209 92.7672C123.601 93.7658 123.083 94.8006 122.618 95.8542C122.318 96.5342 122.075 98.0027 121.301 98.3746C120.352 98.8308 118.847 98.1016 117.976 97.8631C116.952 97.583 115.833 97.466 114.782 97.2828C117.775 93.2322 120.887 89.2424 123.791 85.1441C125.243 83.0951 127.074 80.9438 127.871 78.6258C128.022 78.1867 128.208 77.7673 128.146 77.3002C128.093 76.9017 127.4 76.2751 127.444 75.9986C127.509 75.5887 128.461 75.2465 128.906 74.8157C130.452 73.3187 130.841 71.5372 131.321 69.6341C131.844 67.563 132.477 65.3887 132.829 63.2965ZM138.673 50.7343C140.952 50.3097 143.542 51.4421 145.448 52.3561C146.706 52.9592 150.062 54.22 150.192 55.6971C150.157 55.2964 147.07 55.5463 146.46 55.5594C143.852 55.0712 141.071 54.413 138.638 53.4401C137.752 53.0858 136.711 52.7388 137.034 51.8292C137.246 51.2316 138.026 50.8547 138.673 50.7343ZM136.028 79.7919C134.587 79.7202 129.356 79.7694 131.988 77.511C133.637 76.0966 136.672 75.7897 138.865 75.7822C139.65 75.7795 140.425 75.8327 141.205 75.902C141.419 75.9241 141.633 75.9459 141.847 75.968C142.501 75.8555 142.705 76.0895 142.459 76.6696C142.576 77.009 142.764 79.0219 142.419 79.3051C141.962 79.6806 140.505 79.5149 139.968 79.5512C138.65 79.6402 137.351 79.7988 136.028 79.7919ZM143.68 96.9014C139.889 97.3896 136.104 98.0124 132.26 98.0644C132.834 95.6418 133.502 93.2246 134.547 90.9169C135.215 89.4422 136.427 86.2582 138.764 86.4149C140.629 86.5399 142.805 89.3029 143.325 90.7142C144.003 92.5541 143.68 94.9879 143.68 96.9014ZM153.416 60.0773C153.34 60.4129 151.639 61.0167 151.275 61.1995C148.65 62.518 146.313 64.4725 144.742 66.6939C144.567 65.8366 144.595 64.2107 143.764 63.6017C142.301 62.5296 142.602 64.9313 142.427 65.665C142.263 66.353 142.467 66.2417 141.78 66.3029C141.172 66.3571 139.618 65.3714 139.056 65.1231C137.504 64.4364 136.016 63.6893 134.524 62.9098C135.76 61.1449 139.404 60.3348 141.479 59.629C144.461 58.6143 147.4 58.0952 150.556 57.6751C151.084 57.9125 151.152 57.3784 151.547 57.2588C151.569 57.2313 151.576 57.208 151.577 57.1864C152.04 57.7819 153.529 59.5772 153.416 60.0773ZM157.276 83.8605C158.745 89.695 159.111 95.7647 160.966 101.528C162.73 107.008 164.296 112.462 166.334 117.867C167.507 120.981 168.597 124.125 170.166 127.115C171.26 129.2 172.128 133.647 174.794 134.623C176.538 135.261 177.312 134.696 177.126 133.166C176.964 131.835 176.166 130.999 175.507 129.849C175.277 129.449 174.53 128.319 174.611 127.894C174.712 127.366 174.868 127.422 175.505 127.161C176.857 126.607 178.206 126.231 179.646 125.91C179.065 126.689 177.905 127.803 177.811 128.756C177.734 129.542 178.387 130.985 179.291 131.286C180.145 131.571 181.15 130.97 181.881 130.603C182.727 130.179 183.534 130.061 184.465 129.759C183.278 131.238 181.333 132.416 182.166 134.451C183.054 136.621 185.811 134.846 187.573 134.601C187.07 136.283 184.836 138.2 183.23 139.136C182.151 139.764 180.98 140.33 179.823 140.839C179.375 141.036 178.786 141.156 178.374 141.39C178.218 141.48 177.955 141.858 177.812 141.917C175.813 142.752 173.086 142.965 170.911 143.366C168.514 143.808 166.451 143.916 163.984 143.814C161.942 143.729 159.681 142.645 157.975 141.735C156.678 141.042 156.489 140.196 156.085 138.975C155.416 136.95 154.817 134.911 154.178 132.88C153.627 131.128 153.371 129.445 152.998 127.667C152.207 123.9 151.843 120.074 150.996 116.313C150.153 112.578 149.872 108.794 149.639 104.976C149.526 103.137 149.18 101.262 149.075 99.4586C148.989 97.992 149.018 96.5159 149.027 95.0076C149.034 93.9473 148.599 92.8878 148.629 91.8238C148.655 90.8829 148.755 90.0356 148.64 89.0853C148.395 87.0604 148.203 85.0596 148.019 83.0317C147.66 79.0789 146.603 75.1783 146.182 71.2424C146 69.5401 148.161 67.9079 149.624 66.9165C151.185 65.8601 152.437 64.3764 154.154 63.5447C154.79 70.3713 155.59 77.1628 157.276 83.8605ZM131.419 156.847C129.726 157.499 128.033 158.153 126.34 158.804C125.095 159.283 123.461 160.268 122.093 160.179C123.066 159.04 123.678 157.737 124.716 156.63C125.752 155.525 126.606 154.351 127.543 153.184C128.774 154.482 130.032 155.671 131.419 156.847ZM131.779 151.118C134.34 149.95 137.979 147.731 140.981 148.15C143.143 148.451 145.592 149.82 146.898 151.327C147.51 152.034 148.123 152.693 148.823 153.386C149.466 154.021 149.795 153.939 149.234 154.601C148.802 155.11 147.784 155.455 147.121 155.652C147.121 154.538 147.522 153.42 145.973 153.53C145.362 153.574 144.649 153.7 144.04 153.786C143.516 153.86 143.211 154.057 142.764 154.148C142.287 154.245 141.717 154.131 141.222 154.165C140.37 154.222 139.688 154.518 138.881 154.672C137.211 154.992 135.802 155.434 134.176 155.906C133.433 154.923 132.808 153.742 131.797 152.938C130.668 152.04 130.186 151.844 131.779 151.118ZM109.808 3.91722C110.054 3.89491 110.335 3.7627 110.524 3.48714C110.192 3.96943 109.996 3.99127 109.808 3.91722ZM102.131 4.68528C102.428 4.73203 102.723 4.78923 102.969 4.88916C103.211 4.98742 103.342 5.09945 103.472 5.19771C103.411 5.17492 103.346 5.15048 103.272 5.1239C102.952 5.00831 102.543 4.79968 102.131 4.68528ZM97.0107 41.2587C96.9907 41.2352 96.9717 41.2136 96.9524 41.1922C96.9717 41.2136 96.9907 41.2352 97.011 41.2587H97.0107ZM96.0154 41.3838C95.9219 41.3541 95.8425 41.3052 95.7798 41.234C95.8425 41.3052 95.9219 41.3541 96.0154 41.3838C96.0776 41.4032 96.1463 41.4144 96.2203 41.4175C96.1463 41.4144 96.0776 41.4032 96.0154 41.3838ZM95.6173 40.6793C95.617 40.7816 95.6261 40.8716 95.6442 40.9506C95.6261 40.8716 95.617 40.7816 95.6173 40.6793ZM96.8227 41.0605C96.7985 41.0384 96.7748 41.018 96.7509 40.999C96.7748 41.018 96.7985 41.0387 96.8227 41.0605ZM96.6176 40.906C96.5793 40.8837 96.5411 40.8635 96.5015 40.8467C96.5411 40.8635 96.5793 40.8837 96.6176 40.906ZM139.192 5.64606C139.247 5.65983 139.295 5.66576 139.339 5.6679C139.279 5.67312 139.231 5.66529 139.192 5.64606ZM140.509 6.40913C140.349 6.28073 140.254 6.15493 140.206 6.0289C140.23 6.04219 140.258 6.0543 140.288 6.06474C140.336 6.02392 140.384 5.9831 140.431 5.94203C140.365 6.04837 140.342 6.1509 140.393 6.24299C140.639 6.68731 140.939 6.01181 141.31 6.346C141.032 6.31657 140.693 6.40913 140.509 6.40913C140.082 6.91658 139.654 7.42427 139.226 7.93172C139.805 8.18165 139.987 7.8731 140.31 8.32857C140.326 8.35064 140.34 8.40476 140.352 8.4762C140.218 8.14415 139.867 8.20799 139.226 7.93172C139.654 7.42427 140.082 6.91658 140.509 6.40913ZM141.618 7.52633C141.657 7.5007 141.681 7.46533 141.697 7.41858C141.707 7.38725 141.713 7.35093 141.717 7.30892C141.713 7.35093 141.707 7.38725 141.697 7.41858C141.681 7.46533 141.657 7.5007 141.618 7.52633C141.591 7.54342 141.558 7.55624 141.516 7.56502C141.558 7.55624 141.591 7.54342 141.618 7.52633ZM141.739 6.98684C141.734 7.05306 141.73 7.11263 141.728 7.16604C141.73 7.11263 141.734 7.05306 141.739 6.98684ZM141.106 8.33854C141.125 8.36797 141.145 8.39455 141.167 8.41924C141.145 8.39384 141.125 8.36797 141.106 8.33854ZM140.463 10.3356C139.852 10.0524 140.382 9.69593 140.408 9.26087C140.41 9.22218 140.411 9.18943 140.412 9.15383C140.416 9.25897 140.417 9.34513 140.414 9.38738C140.373 10.0021 139.868 10.1732 140.787 10.3596C140.849 10.3724 140.931 10.379 141.023 10.3821C140.788 10.3968 140.584 10.3916 140.463 10.3356ZM149.945 14.9041C149.907 14.6527 151.267 14.1042 151.442 14.0368C151.227 14.1196 149.909 14.6658 149.945 14.9041ZM151.492 12.6782C151.483 12.6749 151.473 12.6739 151.464 12.6704C151.466 12.6519 151.463 12.6345 151.463 12.6165C151.47 12.6393 151.478 12.6604 151.492 12.6782ZM152.216 14.7082C152.223 14.6809 152.238 14.6081 152.254 14.5212C152.278 14.6285 152.305 14.7291 152.33 14.8169C152.3 14.7828 152.264 14.7469 152.216 14.7082ZM151.16 14.6928C151.159 14.2668 151.313 14.3577 151.409 14.3705C151.322 14.4847 151.159 14.506 151.16 14.6928ZM149.725 15.6284C149.868 15.6042 149.988 15.6752 150.099 15.7571C149.857 15.7018 149.659 15.6394 149.725 15.6284ZM148.558 18.062C148.536 18.0686 148.515 18.0729 148.495 18.0781C148.515 18.0729 148.536 18.0686 148.558 18.062ZM148.676 18.0254C148.66 18.0309 148.646 18.0347 148.631 18.0394C148.646 18.0347 148.66 18.0309 148.676 18.0254ZM148.455 18.0878C148.426 18.0942 148.398 18.0988 148.371 18.1018C148.398 18.0988 148.426 18.0942 148.455 18.0878ZM149.352 32.8148C149.412 32.727 149.542 32.698 149.689 32.684C149.504 32.745 149.362 32.8758 149.328 33.0652C149.292 32.9952 149.283 32.9157 149.352 32.8148ZM150.422 30.0908C150.412 30.0882 150.401 30.0846 150.391 30.0839C150.092 30.0637 149.962 30.2313 149.929 30.4874C149.949 30.264 150.036 30.0817 150.259 30.0224C150.248 30.0022 150.238 29.9835 150.227 29.9638C150.284 30.0086 150.35 30.0509 150.422 30.0908ZM150.067 31.47C150.06 31.4396 150.053 31.4064 150.045 31.372C150.079 31.4937 150.117 31.615 150.156 31.7316C150.117 31.6378 150.084 31.5483 150.067 31.47ZM150.327 27.2291C150.303 27.2388 150.275 27.2473 150.247 27.2547C150.275 27.2473 150.303 27.239 150.327 27.2291ZM150.401 27.1916C150.384 27.2025 150.364 27.212 150.344 27.221C150.364 27.212 150.383 27.2022 150.401 27.1916ZM150.233 27.2587C150.198 27.2668 150.16 27.2734 150.118 27.278C150.16 27.2734 150.198 27.267 150.233 27.2587ZM150.54 24.1628C150.544 24.2772 150.545 24.3913 150.548 24.4993C150.527 24.3932 150.525 24.2886 150.54 24.1628ZM209.886 176.857C209.068 176.221 206.329 176.179 205.241 176C207.595 174.053 209.364 169.132 204.868 168.5C203.872 168.36 203.591 168.692 203.363 167.717C203.223 167.12 203.508 166.57 203.165 165.975C202.351 164.563 199.26 164.72 197.715 164.517C198.084 163.396 198.989 161.392 197.626 160.482C196.55 159.764 194.311 160.722 193.168 161.03C190.08 161.861 186.943 162.809 184.338 164.483C183.171 163.121 181.95 161.776 180.971 160.303C180.037 158.898 179.458 157.344 178.58 155.913C177.7 154.478 176.765 152.786 175.536 151.553C174.495 150.509 173.067 150.405 171.693 149.907C168.209 148.643 165.189 148.715 161.548 149.182C157.909 149.65 154.754 151.49 151.671 153.096C150.462 149.568 147.663 145.736 143.325 144.648C141.378 144.16 139.33 144.631 137.55 145.399C135.344 146.35 133.61 147.967 131.453 148.868C133.913 145.228 137.017 141.804 139.72 138.367C141.202 136.481 143.075 134.798 144.523 132.877C145.999 130.918 147.087 128.741 148.157 126.603C149.062 128.598 149.215 130.697 150.046 132.699C150.809 134.537 151.331 136.423 152.198 138.23C153.103 140.117 153.903 141.979 155.127 143.734C155.825 144.736 157.545 147.856 158.814 145.855C161.636 147.503 164.36 148.498 167.89 148.426C169.505 148.393 171.305 148.349 172.852 148.036C174.423 147.718 175.924 147.291 177.485 146.986C178.72 146.745 179.849 146.093 180.972 145.61C182.265 145.055 183.545 144.056 184.543 143.181C185.778 142.096 187.055 141.053 188.297 139.975C189.526 138.909 189.437 137.821 190.094 136.496C190.781 135.113 191.075 133.891 190.167 132.496C189.502 131.474 188.326 131.614 188.051 130.579C187.789 129.597 188.043 128.672 187.33 127.771C186.788 127.087 184.84 126.63 184.834 125.932C184.828 125.355 185.521 124.845 185.494 124.153C185.469 123.535 185.119 122.542 184.735 122.019C184.013 121.036 182.914 121.002 181.674 121.303C178.679 122.028 175.743 123.895 173.683 125.855C170.858 119.167 168.634 112.333 166.568 105.492C165.656 102.471 164.941 99.4097 164.361 96.3287C163.786 93.2783 162.916 90.2053 162.528 87.139C162.295 85.3 161.64 83.5793 161.334 81.7626C161.081 80.2585 160.912 78.7428 160.663 77.238C160.112 73.9038 159.346 70.6205 158.75 67.2943C158.421 65.4561 157.678 63.8478 157.106 62.0777C156.615 60.5596 156.324 59.2615 155.504 57.8275C153.94 55.0923 152.331 51.7419 149.293 50.0038C146.591 48.4579 143.971 47.1661 140.677 46.8494C138.746 46.6636 137.189 47.0562 135.3 47.2363C133.628 47.396 132.196 48.1952 130.564 48.4831C130.564 47.1428 130.413 47.1065 131.828 46.6296C132.643 46.355 133.438 46.0534 134.268 45.8146C135.143 45.563 135.805 45.3173 136.551 44.855C137.431 44.3089 136.876 44.4824 137.931 44.6711C139.594 44.9687 139.104 44.6233 140.198 43.907C140.835 43.49 141.484 43.7444 142.229 43.8278C142.924 43.9054 144.068 44.171 144.599 43.63C145.002 43.2187 144.562 42.5128 144.859 42.0657C145.329 41.3598 146.674 41.3921 147.391 40.9179C148.177 40.3993 148.248 39.8147 148.078 39.0172C147.96 38.4651 146.953 37.2387 147.01 36.7638C147.048 36.4474 147.241 36.3549 147.49 36.329C149.457 36.4149 149.362 36.1586 148.882 34.6516C148.854 34.8748 148.837 35.0646 148.817 35.2282C148.812 34.9941 148.814 34.7755 148.882 34.6516C148.933 34.5581 149.117 34.4978 149.284 34.4226C149.24 34.4603 149.194 34.4988 149.14 34.542C149.224 34.8622 149.248 35.6993 149.604 35.9269C149.859 36.09 150.751 36.0734 150.931 35.8009C151.308 35.2317 150.013 34.9089 149.962 34.4865C151.45 34.3789 150.942 33.7519 150.164 33.112C150.134 32.9363 150.251 32.8533 150.519 32.8628C150.386 32.7427 150.222 32.6745 150.057 32.6525C150.173 32.6358 150.274 32.6064 150.327 32.5352C150.374 32.4726 150.377 32.3862 150.36 32.2891C150.388 32.3638 150.414 32.4279 150.432 32.4773C151.716 32.9252 151.056 30.5484 150.524 30.1432C150.565 29.4839 150.606 28.8245 150.646 28.1652C150.28 28.374 150.001 28.6997 149.906 29.0396C149.919 28.7258 150.131 28.4592 150.646 28.1652C149.821 27.8512 149.74 27.8129 150.626 27.746C151.36 28.3249 151.258 27.8443 151.713 27.4906C151.685 27.5117 152.401 26.8391 152.353 26.9419C152.693 26.2146 152.318 24.6799 150.948 25.1798C151.692 25.7556 150.945 25.8617 150.685 26.3568C150.676 26.3734 150.669 26.391 150.662 26.4083C150.676 26.349 150.695 26.2918 150.723 26.2391C151.182 25.3863 151.291 26.0411 150.785 25.0709C150.785 25.0701 150.785 25.0694 150.784 25.0685C150.918 25.1269 151.127 25.1145 151.458 24.9937C151.872 24.5572 151.997 24.7357 152.218 24.1734C152.413 23.6814 152.323 23.3458 151.935 23.1628C151.979 23.1728 152.024 23.1839 152.068 23.1937C152.239 22.8153 152.002 22.4548 151.605 22.2808C151.445 22.5073 151.285 22.7339 151.126 22.9606C151.198 22.9808 151.27 22.9988 151.343 23.0178C151.342 23.0178 151.342 23.0178 151.341 23.0176C150.833 22.9668 150.627 23.0456 150.551 23.2483C150.526 23.1574 150.519 23.0679 150.577 22.9867C150.639 22.9001 151.078 23.0285 151.126 22.9606C151.912 21.8455 151.081 20.9173 149.815 20.3493C149.334 20.1335 148.386 20.1262 148.216 19.6213C148.096 19.2646 148.694 18.4014 148.808 17.9782C149.692 17.6279 148.061 17.4228 148.05 17.4214C148.001 17.9205 148.032 18.1415 148.366 18.1028C148.03 18.1422 148.001 17.9188 148.05 17.4214C148.529 17.485 149.944 17.3708 150.638 16.963C151.786 16.9913 152.377 17.1634 153.073 16.3025C152.393 16.0583 151.591 16.1898 150.98 15.8148C151.009 15.9275 151.032 16.0298 151.046 16.1243C150.993 15.9847 150.878 15.8646 150.724 15.7507C150.824 15.8247 150.772 15.8485 150.654 15.8451C150.677 15.8188 150.7 15.7884 150.724 15.7507C150.765 15.3329 151.121 15.5031 151.48 15.5292C151.471 15.3949 151.409 15.2819 151.343 15.1699C151.409 15.2774 151.47 15.3875 151.48 15.5292C151.708 15.4039 151.936 15.2786 152.164 15.153C152.288 15.1219 152.362 15.0785 152.391 15.0239C152.392 15.0249 152.392 15.0261 152.392 15.027C153.482 15.308 153.15 13.3129 152.649 13.3231C152.514 13.3259 152.417 13.3687 152.345 13.4363C152.361 13.2524 152.397 13.0577 152.484 12.7853H152.484H152.484C152.536 12.668 152.586 12.5508 152.638 12.4335C152.363 12.4487 151.474 11.9899 151.458 12.5372C151.441 12.4385 151.396 12.3464 151.318 12.2626C151.398 11.6571 150.986 11.7086 150.347 11.5394C150.11 11.4765 149.848 11.0837 149.581 11.2487C149.179 11.4965 149.421 11.7298 149.679 11.9064C149.641 12.1121 149.527 12.2766 149.337 12.3996C149.308 12.3761 149.28 12.358 149.253 12.3397C149.43 12.2498 149.58 12.1067 149.679 11.9064C148.857 11.3445 148.511 11.7122 147.879 12.1641C148.131 12.3452 148.422 12.4428 148.702 12.4527C148.687 12.4793 148.673 12.5061 148.661 12.5379C148.344 12.5038 148.083 12.3791 147.879 12.1641C148.55 11.684 148.49 11.3896 147.674 11.1048C147.398 11.0087 147.223 11.2228 146.882 11.1096C146.712 11.0533 146.59 10.7979 146.425 10.7134C145.19 10.0814 143.706 10.4412 142.391 10.2914C142.555 10.2732 142.703 10.2554 142.815 10.2425C142.684 9.85044 142.331 9.68074 141.96 9.56135C141.96 9.33801 141.961 9.11443 141.96 8.89108C141.908 8.88088 141.857 8.87613 141.808 8.87494C141.894 8.81608 141.946 8.73609 141.933 8.59986C141.616 8.69907 141.347 8.62597 141.173 8.4273C141.519 8.80872 142.191 8.60911 142.397 8.11994C142.612 7.60727 142.151 7.26288 141.749 6.88241C141.759 6.51689 141.579 6.3854 141.347 6.35027C141.766 5.63918 141.86 5.99188 141.41 5.10253C141.373 4.50323 140.785 4.72088 140.388 5.10586C140.43 5.01756 140.473 4.9269 140.514 4.83243C140.202 4.81416 139.89 4.79588 139.578 4.77713C139.657 4.99597 139.832 5.38569 139.602 5.57153C139.755 5.38142 139.646 4.96606 139.578 4.77713C139.195 4.59295 138.814 4.40877 138.431 4.22411C138.464 4.28321 138.552 4.5056 138.66 4.75743C138.367 4.40354 138.127 4.18424 137.726 3.81991C137.531 3.64213 136.765 2.78887 136.553 2.7357C135.255 2.41053 134.274 4.60434 132.691 4.3041C131.758 4.12703 132.194 3.91817 131.312 4.06627C130.829 3.52393 127.677 4.37672 127.556 4.89272C127.615 4.87895 127.661 4.87326 127.697 4.87231C127.342 4.98244 127.033 5.1519 126.689 5.26654C125.826 5.55421 126.339 5.62921 125.36 5.14502C125.026 4.97983 124.902 5.03157 124.772 5.01638C125.194 4.85261 125.397 3.71903 125.403 3.31483C125.419 2.34906 125.271 2.51853 125.707 1.82595C125.304 1.82049 125.02 1.79082 124.808 1.87365C124.869 1.70941 124.912 1.54825 124.911 1.39231C125.129 0.881538 124.937 0.279861 124.262 0.137689C123.242 -0.0775854 123.041 1.18914 123.781 1.39658C123.074 1.19816 123.357 0.396873 122.394 0.288405C122.747 0.27274 122.967 0.330416 123.296 0.680267C123.405 0.490388 123.514 0.300747 123.623 0.110869C122.856 0.0415633 122.502 -0.0146882 121.882 0.296712C121.276 0.390227 120.849 0.769747 120.392 1.14025C119.146 2.14921 118.028 3.13397 116.881 4.22862C116.292 3.18215 115.641 2.42026 114.685 3.59134C113.822 4.64825 113.123 6.10913 112.674 7.33811C111.778 6.98233 112.156 6.86627 111.78 6.28999C112.171 6.85131 111.773 6.98043 112.674 7.33811C112.764 7.09293 112.854 6.84752 112.943 6.60234C112.158 5.82882 112.191 5.06029 111.341 4.2355C111.247 4.49991 111.518 4.87658 111.565 5.11488C111.618 5.37904 111.279 5.56251 111.356 5.84662C111.674 5.74622 111.748 5.80675 111.758 5.91664C111.747 5.80698 111.672 5.74693 111.356 5.84662C111.23 5.3826 111.543 5.136 111.369 4.61787C111.298 4.40853 111.195 4.25544 111.072 4.10733C111.613 3.32527 109.863 2.78341 109.456 3.24885C109.405 3.30747 109.37 3.36206 109.343 3.41475C108.66 3.14916 108.449 3.71429 108.131 4.13866C108.055 4.27134 107.979 4.40426 107.903 4.53717C107.501 4.8227 107.128 5.42011 106.825 5.81102C106.178 6.64672 105.906 7.86977 105.114 8.56615C105.14 8.11757 105.423 7.12308 104.492 7.5242C104.799 7.39176 104.844 7.23083 104.776 7.04428C104.834 7.07252 104.897 7.09816 104.969 7.11904C105.1 7.1302 105.232 7.14112 105.363 7.15203C105.346 6.51689 104.865 6.0994 104.296 5.76165C104.296 5.92756 104.29 6.09821 104.302 6.26174C104.299 6.25581 104.296 6.25011 104.293 6.24418C104.043 5.727 104.149 5.57462 103.933 5.41607C104.018 5.43363 104.115 5.44621 104.234 5.4512C103.538 4.43369 102.613 4.2711 101.334 4.55782C101.421 4.57562 101.512 4.59081 101.605 4.60576C101.461 4.606 101.32 4.62831 101.189 4.68361C100.692 4.89272 99.9571 6.09465 99.6123 6.51143C98.399 7.97824 97.8339 9.77544 97.1988 11.4708C97.0204 11.9479 96.7495 13.066 96.0597 13.226C95.2579 13.4121 94.4086 12.2828 93.7028 11.9054C91.4446 10.6975 90.3215 12.8662 89.9737 14.5867C89.4548 15.3479 89.5744 15.9346 90.3229 16.2952C90.1133 16.0334 90.0168 15.7545 89.9772 15.4668C90.0765 15.9557 90.5483 16.1252 90.6333 16.3346C90.68 16.4494 90.7449 17.1463 90.7435 17.2863C91.1293 17.5353 91.1581 17.7192 90.8304 17.8382C90.63 17.9566 90.4422 18.089 90.267 18.2352C89.7259 18.7284 89.7312 19.4122 89.236 19.8919C88.6765 20.4345 88.1626 20.1948 87.8983 21.0867C87.4458 22.6148 88.5607 24.922 90.5673 25.0682C90.3292 25.6699 90.021 26.2801 89.8431 26.8972C89.6069 27.7182 89.6234 27.8013 90.071 28.5867C86.7337 28.1578 86.9946 31.2122 88.8967 32.7125C89.3473 33.0681 89.8409 33.2895 90.4227 33.4471C90.8433 33.5613 92.1139 33.4977 92.4166 33.8428C93.0542 34.5705 91.6308 35.5165 91.5049 36.3285C91.4919 36.4116 91.4867 36.5542 91.4908 36.7199C90.9654 37.276 90.9913 37.322 91.7421 37.8421C92.1535 38.3002 93.4246 38.1905 93.8111 38.6286C94.4056 39.303 93.0798 40.3883 93.7443 41.1761C94.2728 41.8022 94.8241 41.412 95.6701 41.6774C96.0798 41.839 96.4892 42.0011 96.898 42.1639C97.0896 42.0488 97.2992 41.9764 97.5271 41.9472C98.005 42.1552 97.5488 42.5214 98.1512 42.6439C98.4641 42.7293 99.1872 43.0535 99.5034 42.8855C99.055 43.1238 98.7539 43.7134 98.4966 44.3613C98.2516 44.7078 98.0253 45.0893 98.1155 45.3755C97.9645 45.7723 97.81 46.1343 97.6255 46.3864C98.667 46.5236 98.5444 47.3716 99.2653 47.8373C100.239 48.5581 100.401 47.889 100.171 47.5375C100.269 47.5802 100.369 47.6358 100.472 47.6991C100.492 47.711 100.282 48.1392 100.488 48.2391C100.775 48.3794 100.775 48.2386 101.074 48.2358C101.356 48.2329 101.764 47.8677 102.108 47.837C102.291 47.8209 102.832 48.0374 102.944 47.973C103.256 47.7943 103.232 47.5983 103.111 47.3612L103.25 47.6021C103.586 48.3599 103.755 48.1893 104.264 47.9721C104.126 48.0307 104.663 47.6847 104.773 47.7124C104.522 47.1117 103.528 47.1748 102.916 47.0246C103.304 47.1198 103.934 47.1233 104.291 47.2562C104.888 47.4786 104.699 47.7048 105.407 47.7741C105.704 47.8033 106.919 47.518 107.133 47.331C107.154 47.3132 107.168 47.2916 107.179 47.2676C107.289 47.1155 107.399 46.9631 107.509 46.8107C107.958 46.8558 107.472 47.4525 108.177 47.2152C108.703 47.0374 108.447 46.7903 108.279 46.5207C108.225 46.4324 108.163 46.3695 108.098 46.3242C108.825 46.4747 109.69 47.321 110.683 47.0839C111.243 46.9503 111.274 46.6199 111.684 46.3109C112.233 45.8981 112.403 45.9618 113.067 45.7621C113.469 45.6411 113.898 45.3741 114.303 45.3119C114.962 45.2105 114.78 45.2734 115.326 45.5136C115.653 45.6572 115.839 45.9266 116.251 45.9788C116.628 46.0263 117.219 45.6518 117.524 45.7548C118.354 46.0351 118.143 47.0417 118.19 47.7053C113.991 46.5499 109.082 48.3967 105.992 50.9328C105.154 51.6204 104.606 52.4357 103.861 53.1833C103.053 53.9946 102.291 54.3632 102.178 55.519C102.08 56.5157 102.6 57.114 102.189 58.0715C101.795 58.9893 101.366 59.8105 101.078 60.7673C99.7028 65.3365 99.6601 70.0813 98.6409 74.7136C97.6978 78.9999 96.3511 82.8183 94.132 86.7474C93.1031 88.5688 92.2406 89.6839 89.9841 90.4522C88.1587 91.0733 86.8225 90.2589 85.9303 88.842C83.5294 85.0285 83.1879 81.1068 83.217 76.8533C83.2308 74.81 83.5005 72.7664 83.7282 70.7349C83.9644 68.6294 83.7873 66.6623 83.6179 64.5599C83.2781 60.3446 82.1656 56.7293 80.4917 52.7649C79.6982 50.8846 79.0287 49.0515 77.1173 47.8283C76.0466 47.1433 74.9713 46.2864 73.7161 45.694C72.712 45.22 72.1143 44.7919 70.9691 44.5797C70.216 44.4401 69.5298 44.2246 68.8025 44.0221C67.0866 43.5451 65.1017 43.3974 63.3016 43.4027C59.0987 43.415 54.4861 44.6383 50.7028 46.2069C48.8191 46.988 46.7735 48.151 45.5327 49.6328C45.0207 50.2445 44.6721 50.9226 44.3243 51.6106C43.908 52.433 44.0389 52.5835 43.1574 52.5548C42.6053 52.5368 41.9877 52.0951 41.3554 52.0716C40.663 52.0459 40.1563 52.2543 39.5118 52.4088C38.6938 52.6049 37.9248 52.7805 37.1976 53.1869C35.4327 54.1721 33.94 55.7424 32.5913 57.1124C30.1223 59.6199 27.8886 62.4301 25.5787 64.9842C23.3041 67.4989 20.5408 69.7307 17.0077 70.8707C15.6599 71.3058 14.1675 71.3936 12.7914 71.7453C12.1876 71.8996 11.4562 72.3093 10.8235 72.3022C9.82931 72.2912 9.90575 71.8702 9.56151 71.188C9.15239 70.3777 8.56042 69.7469 7.82081 69.1416C4.53928 66.4556 0.458194 70.4354 0.711423 73.5012C0.859621 75.2925 2.41254 76.474 2.35782 78.232C2.30641 79.8769 2.41969 81.5452 3.09826 83.1062C3.85988 84.8569 5.73283 86.6726 7.38446 87.8636C8.91456 88.9671 10.831 89.2013 12.7584 89.3855C13.6418 89.4698 14.5585 89.6969 15.4127 89.6836C16.1446 89.672 16.8103 89.4159 17.5576 89.442C18.8251 89.4861 19.5045 89.479 20.6923 89.09C21.5733 88.8016 22.3681 88.6414 23.3274 88.6602C23.3274 90.408 23.4556 92.1174 23.6293 93.8593C23.6522 94.0893 23.8361 94.6867 23.7137 94.8917C23.5628 95.1448 23.3835 94.9779 23.1955 95.16C22.7467 95.5941 22.4215 95.8072 22.0855 96.3716C21.1639 97.9189 20.8818 99.6496 21.2408 101.375C21.5227 102.728 22.4426 103.285 22.2252 104.722C21.9695 106.41 21.4938 108.134 21.402 109.833C21.358 110.644 21.347 111.256 21.1485 112.042C21.0338 112.499 20.648 113.321 20.6791 113.782C20.6986 114.067 21.0481 114.194 21.0486 114.455C21.0495 114.682 20.7451 114.652 20.7242 114.847C20.6604 115.436 20.6233 115.969 20.6379 116.561C20.6571 117.361 20.5667 118.157 20.6013 118.958C20.6277 119.567 20.4636 121.011 21.2551 120.773C21.044 121.204 20.9879 121.619 20.967 122.032C20.9563 121.992 20.9516 121.951 20.9557 121.91C21.0041 121.432 21.0203 121.252 21.2551 120.773L20.8034 120.909C20.5271 121.525 20.8664 122.129 20.9422 122.742C20.9398 122.804 20.9373 122.865 20.9329 122.927C20.8691 123.818 20.9469 124.69 21.0239 125.579C21.1996 127.609 21.2824 129.871 21.9172 131.695C22.6131 133.694 22.3907 136.207 22.659 138.409C22.9662 140.928 23.4641 143.408 23.835 145.918C24.1663 148.16 24.3261 150.592 24.8944 152.775C25.3604 154.563 25.7547 156.305 26.0046 158.184C26.3505 160.79 27.4506 162.775 28.6612 165.143C29.1731 166.145 29.2083 166.129 28.2686 166.861C27.8748 167.168 27.541 167.526 27.1399 167.826C26.3368 168.426 25.4594 168.776 24.4047 168.884C21.8083 169.15 19.1853 169.948 17.7267 171.883C16.317 173.754 17.2304 175.946 18.2854 177.852C16.8931 177.954 13.1276 177.88 14.0086 180.073C14.6107 181.573 17.8216 181.07 19.2398 181.087C21.3121 181.111 23.3989 181.023 25.4531 180.999C26.3882 180.987 26.4836 180.904 27.3942 181.212C28.2523 181.502 28.9073 181.534 29.8358 181.481C30.8245 181.425 31.8127 181.551 32.7709 181.428C33.9787 181.273 34.7302 181.143 35.9435 181.328C36.8206 181.463 37.5237 181.397 38.3988 181.297C39.3688 181.186 40.2875 181.253 41.2883 181.229C43.6259 181.175 45.9456 181.213 48.2849 181.236C50.5588 181.258 52.8342 180.989 55.0924 181.077C59.0305 181.231 63.0387 181.091 66.995 181.171C68.8198 181.207 70.2295 182.125 72.0587 182.031C73.9177 181.935 75.8022 181.92 77.6468 181.696C80.8231 181.309 83.8835 180.762 87.1103 180.619C89.1499 180.529 90.9426 181.288 92.8615 181.765C93.5568 181.937 94.1823 181.857 94.8323 181.985C95.4457 182.105 96.0748 182.452 96.7226 182.595C98.2563 182.935 99.722 183.065 101.07 183.096C101.244 183.375 101.446 183.409 101.674 183.198C101.767 183.153 101.859 183.107 101.952 183.062C102.382 183.013 102.688 182.845 103.139 182.82C103.834 182.782 104.546 182.864 105.191 182.81C106.542 182.698 107.81 182.624 109.304 182.757C110.19 182.835 110.965 182.724 111.837 182.738C111.827 182.738 113.034 182.941 113.061 182.932C113.168 182.896 113.337 182.639 113.406 182.627C113.381 182.381 113.467 182.27 113.664 182.293C113.822 182.264 113.926 182.335 113.977 182.508C113.93 182.513 114.353 182.697 114.383 182.701C114.407 182.705 115.497 182.593 115.574 182.568C115.886 182.467 116.019 182.173 116.269 182.129C116.564 182.077 116.74 182.358 116.996 182.346C117.561 182.32 117.494 182.103 117.928 182.035C119.451 181.798 121.315 182.106 122.888 182.108C124.456 182.111 126.015 181.987 127.524 181.929C129.38 181.859 131.198 182.163 133.068 181.947C134.846 181.741 136.626 181.652 138.417 181.586C142.162 181.45 146.004 181.594 149.714 181.214C153.577 180.817 157.504 181.213 161.373 181.154C165.452 181.091 169.554 181.059 173.631 180.914C177.69 180.77 181.732 180.353 185.774 180.269C186.803 180.247 187.813 180.035 188.837 179.971C189.776 179.912 190.698 180.041 191.644 179.97C193.366 179.839 194.932 179.939 196.663 179.916C198.599 179.891 200.479 179.635 202.405 179.533C204.351 179.429 206.278 179.667 208.209 179.335C209.264 179.153 211.232 177.904 209.886 176.857Z" fill="#2A1D46"/>
<path fill-rule="evenodd" clip-rule="evenodd" d="M133.466 27.9862C133.463 27.9862 133.46 27.9865 133.458 27.9862C133.447 27.9967 133.436 28.008 133.426 28.0178L133.466 27.9862Z" fill="#2A1D46"/>
<path fill-rule="evenodd" clip-rule="evenodd" d="M149.583 20.2795C149.827 19.5446 149.208 19.0182 148.793 18.4474C148.549 19.7424 147.799 19.6864 149.583 20.2795Z" fill="#2A1D46"/>
<path fill-rule="evenodd" clip-rule="evenodd" d="M104.673 47.868C104.679 47.8834 104.688 47.897 104.693 47.9132C104.7 47.8864 104.692 47.8726 104.673 47.868Z" fill="#2A1D46"/>
<path fill-rule="evenodd" clip-rule="evenodd" d="M97.9185 46.8998C97.9741 47.008 98.096 47.7564 98.1839 47.7601C98.9682 47.7923 98.0125 46.5261 97.5111 46.4521C96.7862 46.8567 97.9356 46.9332 97.9185 46.8998Z" fill="#2A1D46"/>
<path fill-rule="evenodd" clip-rule="evenodd" d="M97.875 42.525C97.8232 41.9531 97.6006 41.8806 96.9668 42.1587C97.1562 42.5183 97.3818 42.4666 97.875 42.525Z" fill="#2A1D46"/>
<path fill-rule="evenodd" clip-rule="evenodd" d="M89.0962 28.5251C89.3989 28.5687 89.7019 28.6123 90.0044 28.6557C89.8267 28.307 89.6487 27.9577 89.471 27.6088C89.346 27.9144 89.2212 28.2197 89.0962 28.5251Z" fill="#2A1D46"/>
<path fill-rule="evenodd" clip-rule="evenodd" d="M95.3161 143.42C95.3164 143.419 95.3164 143.419 95.3171 143.418C95.291 143.427 95.2871 143.429 95.3161 143.42Z" fill="#2A1D46"/>
<path fill-rule="evenodd" clip-rule="evenodd" d="M33.5476 72.1407C34.1887 71.2138 35.4045 70.0689 36.7884 70.4541C38.0813 70.8144 38.4393 72.2797 38.9964 73.2014C40.0803 74.9935 40.4177 73.0693 40.6579 71.9816C40.4622 69.8033 39.4819 66.2576 36.1658 66.6333C33.6435 66.9195 31.4655 70.4225 31.9458 72.4936C32.3492 74.2347 33.0305 72.8884 33.5476 72.1407Z" fill="#2A1D46"/>
<path fill-rule="evenodd" clip-rule="evenodd" d="M129.133 31.0862C127.895 30.704 127.896 31.8611 127.848 32.7307C127.805 33.5298 127.948 35.4041 129.114 35.6896C130.277 35.9743 130.386 34.3189 130.566 33.6496C130.295 32.8551 130.145 31.3986 129.133 31.0862Z" fill="#2A1D46"/>
<path fill-rule="evenodd" clip-rule="evenodd" d="M130.566 29.3498C129.657 28.6551 129.05 28.4423 127.889 28.8911C127.292 29.1219 126.438 29.6242 126.344 30.2575C126.052 32.2287 129.765 29.7543 130.566 29.3498Z" fill="#2A1D46"/>
<path fill-rule="evenodd" clip-rule="evenodd" d="M130.757 41.1585C132.875 41.6317 133.011 39.1283 130.655 39.1242C129.079 39.1216 129.574 40.8944 130.757 41.1585Z" fill="#2A1D46"/>
<path fill-rule="evenodd" clip-rule="evenodd" d="M114.561 33.3753C113.771 33.4752 113.491 33.9042 113.661 34.5888C113.857 35.3787 114.352 35.3852 115.238 35.459C117.376 35.4648 115.981 33.196 114.561 33.3753Z" fill="#2A1D46"/>
<path fill-rule="evenodd" clip-rule="evenodd" d="M133.323 29.1365C133.518 29.6054 134.58 29.8172 135.135 29.6384C135.796 29.4257 135.933 28.9088 135.337 28.434C134.827 28.0275 134.123 28.1346 133.484 28.1724C133.506 28.3499 133.201 28.8449 133.323 29.1365Z" fill="#2A1D46"/>
<path fill-rule="evenodd" clip-rule="evenodd" d="M66.8637 82.5706C67.874 82.5694 66.9206 81.0921 66.0884 81.0003C66.1059 81.4573 66.0712 82.5718 66.8637 82.5706Z" fill="#2A1D46"/>
</svg>
