<svg width="96" height="96" viewBox="0 0 96 96" fill="none" xmlns="http://www.w3.org/2000/svg">
<rect width="96" height="96" rx="26" fill="url(#paint0_linear)"/>
<path d="M57.258 28.128C55.0454 28.5583 52.6448 29.4043 50.3526 30.7456C48.7474 31.6856 46.7625 31.6856 45.1573 30.7456C42.8688 29.4043 40.4645 28.5619 38.2519 28.128C30.9488 26.7036 24 30.6516 24 38.0089V51.7366V55.1568C24 63.3384 30.6343 69.9727 38.8159 69.9727C38.8159 69.9727 40.9815 70.0124 43.5882 70.0414C44.3872 70.0775 45.9672 70.0847 47.7604 70.0775C49.5536 70.0847 51.13 70.0775 51.9326 70.0414C54.5393 70.0088 56.7049 69.9727 56.7049 69.9727C64.8865 69.9727 71.5208 63.3384 71.5208 55.1568V51.7366V38.0089C71.5136 30.6516 64.5612 26.7036 57.258 28.128Z" fill="white"/>
<path d="M42.7965 40.5396C43.7799 40.5396 44.738 40.6842 45.6707 40.9698C46.6288 41.2338 47.4568 41.6423 48.1509 42.1918C48.8704 41.711 49.673 41.3169 50.5588 41.006C51.4698 40.6951 52.5581 40.5396 53.8271 40.5396C54.7382 40.5396 55.6239 40.6589 56.4844 40.8975C57.3702 41.1362 58.1511 41.5194 58.82 42.0472C59.5141 42.5498 60.0673 43.2331 60.4722 44.0972C60.8807 44.9359 61.0832 45.9663 61.0832 47.1883V58.5081C60.8446 58.5805 60.4613 58.6528 59.9335 58.7251C59.431 58.7974 58.9031 58.8335 58.3536 58.8335C57.8257 58.8335 57.3485 58.7974 56.9146 58.7251C56.5061 58.6528 56.159 58.5081 55.8734 58.2948C55.5878 58.0815 55.36 57.7923 55.1901 57.4308C55.0455 57.0475 54.9732 56.5558 54.9732 55.9593V47.3655C54.9732 46.646 54.7707 46.1326 54.3622 45.8217C53.9536 45.4855 53.4041 45.3192 52.7099 45.3192C52.3737 45.3192 52.0158 45.4023 51.6325 45.5722C51.2493 45.7169 50.9601 45.8723 50.7685 46.0386C50.7938 46.1362 50.8046 46.2302 50.8046 46.3279C50.8046 46.4002 50.8046 46.4725 50.8046 46.5448V58.5118C50.5407 58.5841 50.1466 58.6564 49.6188 58.7287C49.1162 58.801 48.5992 58.8371 48.075 58.8371C47.5508 58.8371 47.0699 58.801 46.6361 58.7287C46.2275 58.6564 45.8804 58.5118 45.5948 58.2984C45.3056 58.0815 45.0814 57.7959 44.9115 57.4344C44.7669 57.0511 44.6946 56.5594 44.6946 55.9629V47.3655C44.6946 46.646 44.4668 46.1326 44.0113 45.8217C43.581 45.4855 43.0532 45.3192 42.4314 45.3192C42.0011 45.3192 41.6287 45.3915 41.3178 45.5361C41.0069 45.6554 40.743 45.7747 40.526 45.894V58.5081C40.2874 58.5805 39.9042 58.6528 39.3763 58.7251C38.8738 58.7974 38.346 58.8335 37.7964 58.8335C37.2686 58.8335 36.7913 58.7974 36.3575 58.7251C35.9489 58.6528 35.6019 58.5081 35.3162 58.2948C35.027 58.0779 34.8029 57.7923 34.6329 57.4308C34.4883 57.0475 34.416 56.5558 34.416 55.9593V45.1022C34.416 44.4551 34.5462 43.9417 34.8101 43.5585C35.0993 43.1752 35.4826 42.8173 35.9598 42.4811C36.7733 41.9062 37.782 41.4398 38.9786 41.0783C40.2115 40.7168 41.4805 40.5396 42.7965 40.5396Z" fill="#EA5706"/>
<defs>
<linearGradient id="paint0_linear" x1="48" y1="0" x2="48" y2="96" gradientUnits="userSpaceOnUse">
<stop stop-color="#FE7624"/>
<stop offset="1" stop-color="#EA5706"/>
</linearGradient>
</defs>
</svg>
