<svg width="89" height="27" viewBox="0 0 89 27" fill="none" xmlns="http://www.w3.org/2000/svg">
<path d="M9.26001 7.56C10.244 7.56 11.204 7.704 12.14 7.992C13.1 8.256 13.928 8.664 14.624 9.216C15.344 8.736 16.148 8.34 17.036 8.028C17.948 7.716 19.04 7.56 20.312 7.56C21.224 7.56 22.112 7.68 22.976 7.92C23.864 8.16 24.644 8.544 25.316 9.072C26.012 9.576 26.564 10.26 26.972 11.124C27.38 11.964 27.584 12.996 27.584 14.22V25.56C27.344 25.632 26.96 25.704 26.432 25.776C25.928 25.848 25.4 25.884 24.848 25.884C24.32 25.884 23.84 25.848 23.408 25.776C23 25.704 22.652 25.56 22.364 25.344C22.076 25.128 21.848 24.84 21.68 24.48C21.536 24.096 21.464 23.604 21.464 23.004V14.4C21.464 13.68 21.26 13.164 20.852 12.852C20.444 12.516 19.892 12.348 19.196 12.348C18.86 12.348 18.5 12.432 18.116 12.6C17.732 12.744 17.444 12.9 17.252 13.068C17.276 13.164 17.288 13.26 17.288 13.356C17.288 13.428 17.288 13.5 17.288 13.572V25.56C17.024 25.632 16.628 25.704 16.1 25.776C15.596 25.848 15.08 25.884 14.552 25.884C14.024 25.884 13.544 25.848 13.112 25.776C12.704 25.704 12.356 25.56 12.068 25.344C11.78 25.128 11.552 24.84 11.384 24.48C11.24 24.096 11.168 23.604 11.168 23.004V14.4C11.168 13.68 10.94 13.164 10.484 12.852C10.052 12.516 9.52401 12.348 8.90001 12.348C8.46801 12.348 8.09601 12.42 7.78401 12.564C7.47201 12.684 7.20801 12.804 6.99201 12.924V25.56C6.75201 25.632 6.36801 25.704 5.84001 25.776C5.33601 25.848 4.80801 25.884 4.25601 25.884C3.72801 25.884 3.24801 25.848 2.81601 25.776C2.40801 25.704 2.06001 25.56 1.77201 25.344C1.48401 25.128 1.25601 24.84 1.08801 24.48C0.944009 24.096 0.872009 23.604 0.872009 23.004V12.132C0.872009 11.484 1.00401 10.968 1.26801 10.584C1.55601 10.2 1.94001 9.84 2.42001 9.504C3.23601 8.928 4.24401 8.46 5.44401 8.1C6.66801 7.74 7.94001 7.56 9.26001 7.56Z" fill="#FE7624"/>
<path d="M30.5733 3.24C30.5733 2.328 30.8733 1.56 31.4733 0.935999C32.0973 0.312 32.9133 0 33.9213 0C34.9293 0 35.7333 0.312 36.3333 0.935999C36.9573 1.56 37.2693 2.328 37.2693 3.24C37.2693 4.152 36.9573 4.92 36.3333 5.544C35.7333 6.168 34.9293 6.48 33.9213 6.48C32.9133 6.48 32.0973 6.168 31.4733 5.544C30.8733 4.92 30.5733 4.152 30.5733 3.24ZM36.9813 25.56C36.7173 25.608 36.3213 25.668 35.7933 25.74C35.2893 25.836 34.7733 25.884 34.2453 25.884C33.7173 25.884 33.2373 25.848 32.8053 25.776C32.3973 25.704 32.0493 25.56 31.7613 25.344C31.4733 25.128 31.2453 24.84 31.0773 24.48C30.9333 24.096 30.8613 23.604 30.8613 23.004V8.352C31.1253 8.304 31.5093 8.244 32.0133 8.172C32.5413 8.076 33.0693 8.028 33.5973 8.028C34.1253 8.028 34.5933 8.064 35.0013 8.136C35.4333 8.208 35.7933 8.352 36.0813 8.568C36.3693 8.784 36.5853 9.084 36.7293 9.468C36.8973 9.828 36.9813 10.308 36.9813 10.908V25.56Z" fill="#FE7624"/>
<path d="M48.6655 7.56C49.6495 7.56 50.6095 7.704 51.5455 7.992C52.5055 8.256 53.3335 8.664 54.0295 9.216C54.7495 8.736 55.5535 8.34 56.4415 8.028C57.3535 7.716 58.4455 7.56 59.7175 7.56C60.6295 7.56 61.5175 7.68 62.3815 7.92C63.2695 8.16 64.0495 8.544 64.7215 9.072C65.4175 9.576 65.9695 10.26 66.3775 11.124C66.7855 11.964 66.9895 12.996 66.9895 14.22V25.56C66.7495 25.632 66.3655 25.704 65.8375 25.776C65.3335 25.848 64.8055 25.884 64.2535 25.884C63.7255 25.884 63.2455 25.848 62.8135 25.776C62.4055 25.704 62.0575 25.56 61.7695 25.344C61.4815 25.128 61.2535 24.84 61.0855 24.48C60.9415 24.096 60.8695 23.604 60.8695 23.004V14.4C60.8695 13.68 60.6655 13.164 60.2575 12.852C59.8495 12.516 59.2975 12.348 58.6015 12.348C58.2655 12.348 57.9055 12.432 57.5215 12.6C57.1375 12.744 56.8495 12.9 56.6575 13.068C56.6815 13.164 56.6935 13.26 56.6935 13.356C56.6935 13.428 56.6935 13.5 56.6935 13.572V25.56C56.4295 25.632 56.0335 25.704 55.5055 25.776C55.0015 25.848 54.4855 25.884 53.9575 25.884C53.4295 25.884 52.9495 25.848 52.5175 25.776C52.1095 25.704 51.7615 25.56 51.4735 25.344C51.1855 25.128 50.9575 24.84 50.7895 24.48C50.6455 24.096 50.5735 23.604 50.5735 23.004V14.4C50.5735 13.68 50.3455 13.164 49.8895 12.852C49.4575 12.516 48.9295 12.348 48.3055 12.348C47.8735 12.348 47.5015 12.42 47.1895 12.564C46.8775 12.684 46.6135 12.804 46.3975 12.924V25.56C46.1575 25.632 45.7735 25.704 45.2455 25.776C44.7415 25.848 44.2135 25.884 43.6615 25.884C43.1335 25.884 42.6535 25.848 42.2215 25.776C41.8135 25.704 41.4655 25.56 41.1775 25.344C40.8895 25.128 40.6615 24.84 40.4935 24.48C40.3495 24.096 40.2775 23.604 40.2775 23.004V12.132C40.2775 11.484 40.4095 10.968 40.6735 10.584C40.9615 10.2 41.3455 9.84 41.8255 9.504C42.6415 8.928 43.6495 8.46 44.8495 8.1C46.0735 7.74 47.3455 7.56 48.6655 7.56Z" fill="#FE7624"/>
<path d="M88.2308 16.848C88.2308 18.336 88.0028 19.668 87.5468 20.844C87.0908 21.996 86.4428 22.968 85.6028 23.76C84.7868 24.552 83.8028 25.152 82.6508 25.56C81.4988 25.968 80.2148 26.172 78.7988 26.172C77.3828 26.172 76.0988 25.956 74.9468 25.524C73.7948 25.092 72.7988 24.48 71.9588 23.688C71.1428 22.872 70.5068 21.888 70.0508 20.736C69.5948 19.584 69.3668 18.288 69.3668 16.848C69.3668 15.432 69.5948 14.148 70.0508 12.996C70.5068 11.844 71.1428 10.872 71.9588 10.08C72.7988 9.264 73.7948 8.64 74.9468 8.208C76.0988 7.776 77.3828 7.56 78.7988 7.56C80.2148 7.56 81.4988 7.788 82.6508 8.244C83.8028 8.676 84.7868 9.3 85.6028 10.116C86.4428 10.908 87.0908 11.88 87.5468 13.032C88.0028 14.184 88.2308 15.456 88.2308 16.848ZM75.6308 16.848C75.6308 18.312 75.9068 19.44 76.4588 20.232C77.0348 21 77.8268 21.384 78.8348 21.384C79.8428 21.384 80.6108 20.988 81.1388 20.196C81.6908 19.404 81.9668 18.288 81.9668 16.848C81.9668 15.408 81.6908 14.304 81.1388 13.536C80.5868 12.744 79.8068 12.348 78.7988 12.348C77.7908 12.348 77.0108 12.744 76.4588 13.536C75.9068 14.304 75.6308 15.408 75.6308 16.848Z" fill="#FE7624"/>
</svg>
