<?xml version="1.0" encoding="UTF-8" standalone="no"?>
<svg
   xmlns:dc="http://purl.org/dc/elements/1.1/"
   xmlns:cc="http://creativecommons.org/ns#"
   xmlns:rdf="http://www.w3.org/1999/02/22-rdf-syntax-ns#"
   xmlns:svg="http://www.w3.org/2000/svg"
   xmlns="http://www.w3.org/2000/svg"
   xmlns:sodipodi="http://sodipodi.sourceforge.net/DTD/sodipodi-0.dtd"
   xmlns:inkscape="http://www.inkscape.org/namespaces/inkscape"
   width="290"
   height="293.76801"
   viewBox="0 0 290 293.76801"
   fill="none"
   version="1.1"
   id="svg4"
   sodipodi:docname="vector_outline_45.svg"
   inkscape:version="1.0.1 (3bc2e813f5, 2020-09-07)">
  <metadata
     id="metadata8">
    <rdf:RDF>
      <cc:Work
         rdf:about="">
        <dc:format>image/svg+xml</dc:format>
        <dc:type
           rdf:resource="http://purl.org/dc/dcmitype/StillImage" />
        <dc:title></dc:title>
      </cc:Work>
    </rdf:RDF>
  </metadata>
  <defs
     id="defs6" />
  <sodipodi:namedview
     pagecolor="#ffffff"
     bordercolor="#666666"
     borderopacity="1"
     objecttolerance="10"
     gridtolerance="10"
     guidetolerance="10"
     inkscape:pageopacity="0"
     inkscape:pageshadow="2"
     inkscape:window-width="1366"
     inkscape:window-height="745"
     id="namedview4"
     showgrid="false"
     inkscape:zoom="1.318412"
     inkscape:cx="134.44691"
     inkscape:cy="172.21588"
     inkscape:window-x="-8"
     inkscape:window-y="-8"
     inkscape:window-maximized="1"
     inkscape:current-layer="svg4"
     inkscape:document-rotation="0" />
  <path
     d="M 259.61961,118.40038 C 250.04202,110.72426 238.07822,103.72892 224.443,98.92626 214.8905,95.565195 207.89944,87.32146 206.14207,77.349214 203.64209,63.128287 198.6651,50.18075 192.66998,39.465798 172.85039,4.1261317 132.00409,-10.849391 101.50075,15.022622 L 44.586179,63.29591 30.406208,75.322957 C -3.5147385,104.09374 -7.6509038,154.9759 21.169432,188.95542 c 0,0 7.463153,9.13306 16.525561,20.06091 2.664715,3.44564 8.199917,10.03225 14.54699,17.4551 6.28648,7.47231 11.869053,13.99349 14.846178,17.1996 9.317312,10.71191 17.095627,19.57865 17.095627,19.57865 28.820022,33.97889 79.695232,38.20302 113.615982,9.43188 l 14.17972,-12.02693 56.91448,-48.2737 c 30.47838,-25.90163 22.35683,-68.65941 -9.27437,-93.98056 z"
     fill-opacity="0"
     fill="none"
     stroke="#fe7624"
     stroke-width="3"
     id="path2" />
</svg>
